<?xml version="1.0" encoding="UTF-8" standalone="no"?>
<!-- Created with Inkscape (http://www.inkscape.org/) -->

<svg
   width="720"
   height="720"
   viewBox="5 0.5 183 181"
   version="1.1"
   id="svg5"
   inkscape:version="1.1.1 (3bf5ae0d25, 2021-09-20)"
   sodipodi:docname="dimmu-saurus.svg"
   xmlns:inkscape="http://www.inkscape.org/namespaces/inkscape"
   xmlns:sodipodi="http://sodipodi.sourceforge.net/DTD/sodipodi-0.dtd"
   xmlns="http://www.w3.org/2000/svg"
   xmlns:svg="http://www.w3.org/2000/svg">
  <sodipodi:namedview
     id="namedview7"
     pagecolor="#ffffff"
     bordercolor="#666666"
     borderopacity="1.0"
     inkscape:pageshadow="2"
     inkscape:pageopacity="0.0"
     inkscape:pagecheckerboard="0"
     inkscape:document-units="px"
     showgrid="false"
     units="px"
     width="720px"
     inkscape:snap-midpoints="false"
     inkscape:object-nodes="true"
     inkscape:zoom="0.99999999"
     inkscape:cx="337"
     inkscape:cy="325"
     inkscape:window-width="1920"
     inkscape:window-height="1129"
     inkscape:window-x="1920"
     inkscape:window-y="0"
     inkscape:window-maximized="1"
     inkscape:current-layer="layer1"
     inkscape:snap-others="true"
     inkscape:object-paths="false"
     inkscape:snap-nodes="true" />
  <defs
     id="defs2" />
  <g
     inkscape:label="контури"
     inkscape:groupmode="layer"
     id="layer1"
     style="display:inline">
    <path
       style="fill:none;stroke:#303030;stroke-width:1;stroke-linecap:butt;stroke-linejoin:miter;stroke-miterlimit:4;stroke-dasharray:none;stroke-opacity:1"
       d="M 37.231523,150.62266 C 35.72524,149.59737 35.3978,149.29438 34.86899,149.47331"
       id="path1615"
       sodipodi:nodetypes="cc" />
    <path
       style="fill:none;stroke:#303030;stroke-width:1;stroke-linecap:butt;stroke-linejoin:miter;stroke-miterlimit:4;stroke-dasharray:none;stroke-opacity:1"
       d="m 38.087417,150.99542 5.112505,0.96517"
       id="path1617" />
    <path
       style="fill:none;stroke:#303030;stroke-width:1;stroke-linecap:butt;stroke-linejoin:miter;stroke-miterlimit:4;stroke-dasharray:none;stroke-opacity:1"
       d="m 38.094036,150.99652 c -0.381192,-0.0784 -0.895944,-0.39787 -0.895944,-0.39787"
       id="path2583" />
    <path
       style="fill:none;stroke:#303030;stroke-width:1;stroke-linecap:butt;stroke-linejoin:miter;stroke-miterlimit:4;stroke-dasharray:none;stroke-opacity:1"
       d="m 44.360572,151.78455 6.210221,-3.01922"
       id="path2957" />
    <path
       style="fill:none;stroke:#303030;stroke-width:1;stroke-linecap:butt;stroke-linejoin:miter;stroke-miterlimit:4;stroke-dasharray:none;stroke-opacity:1"
       d="m 65.489713,147.55742 c -6.948235,7.62177 -13.943968,1.28699 -14.075436,1.15385"
       id="path3156"
       sodipodi:nodetypes="cc" />
    <path
       style="fill:none;stroke:#303030;stroke-width:1;stroke-linecap:butt;stroke-linejoin:miter;stroke-miterlimit:4;stroke-dasharray:none;stroke-opacity:1"
       d="m 43.199922,151.96059 c 0.596294,0.10601 0.955639,-0.0766 1.16065,-0.17604"
       id="path6582"
       sodipodi:nodetypes="cc" />
    <path
       style="fill:none;stroke:#303030;stroke-width:1;stroke-linecap:butt;stroke-linejoin:miter;stroke-miterlimit:4;stroke-dasharray:none;stroke-opacity:1"
       d="m 50.570793,148.76533 c 0.466856,-0.22419 0.513004,-0.39115 0.843611,-0.054"
       id="path8695"
       sodipodi:nodetypes="cc" />
    <path
       style="fill:none;stroke:#303030;stroke-width:1;stroke-linecap:butt;stroke-linejoin:miter;stroke-miterlimit:4;stroke-dasharray:none;stroke-opacity:1"
       d="m 65.489713,147.55742 c 0.361553,-0.39349 1.598645,-1.02582 1.797154,-1.1202"
       id="path11728"
       sodipodi:nodetypes="cc" />
    <path
       style="fill:none;stroke:#303030;stroke-width:1;stroke-linecap:butt;stroke-linejoin:miter;stroke-miterlimit:4;stroke-dasharray:none;stroke-opacity:1"
       d="m 73.466607,132.7411 c 0.155157,9.18382 0.479392,8.16827 0.719088,12.25241 0.0028,0.6968 -0.134601,0.7704 -0.20287,1.1513"
       id="path920"
       sodipodi:nodetypes="ccc" />
    <path
       style="fill:none;stroke:#303030;stroke-width:1;stroke-linecap:butt;stroke-linejoin:miter;stroke-miterlimit:4;stroke-dasharray:none;stroke-opacity:1"
       d="m 73.982825,146.14481 c -0.08737,0.59118 -2.060564,1.03389 -3.094506,1.2259 -0.646576,0.12481 -1.64802,-0.65309 -2.713405,-1.00861 -0.256065,-0.061 -0.52487,-0.0978 -0.888047,0.0751"
       id="path922"
       sodipodi:nodetypes="cccc" />
    <path
       style="fill:none;stroke:#303030;stroke-width:1;stroke-linecap:butt;stroke-linejoin:miter;stroke-miterlimit:4;stroke-dasharray:none;stroke-opacity:1"
       d="m 26.144238,151.11612 c -0.049,3.16748 0.56418,3.67595 0.696977,3.91551 0.166192,0.23543 0.386596,0.50309 0.801235,0.53468 0.33197,0.0134 1.49488,-0.38199 1.515788,-0.38646 0.742108,-0.30884 1.786837,-2.2813 2.673524,-3.45107"
       id="path5151"
       sodipodi:nodetypes="ccccc" />
    <path
       style="fill:none;stroke:#303030;stroke-width:1;stroke-linecap:butt;stroke-linejoin:miter;stroke-miterlimit:4;stroke-dasharray:none;stroke-opacity:1"
       d="m 31.831762,151.72878 c 0.162294,-0.21296 1.647351,-1.27653 2.471026,-1.9148 0.23571,-0.16597 0.29405,-0.249 0.566203,-0.34067"
       id="path5346"
       sodipodi:nodetypes="ccc" />
    <path
       style="fill:none;stroke:#303030;stroke-width:1.00000003;stroke-linecap:butt;stroke-linejoin:miter;stroke-miterlimit:4;stroke-dasharray:none;stroke-opacity:1"
       d="m 26.144238,151.11612 c 0.02005,-1.16402 -1.074081,-2.5354 -1.182531,-3.65032 -0.107882,-0.81411 -0.1574,-1.61967 -0.235502,-2.42942 -0.06857,-0.87287 0.05398,-2.34305 -0.100524,-2.66534 -0.109398,-0.26769 -0.970569,0.0246 -1.086637,-0.18405 -0.106337,-0.0487 0.0072,-2.04625 -0.142843,-2.10832 -0.502033,-0.39262 -0.802898,0.0486 -0.939431,0.2839 -0.282638,0.34855 -0.870075,0.71679 -1.259803,1.11961"
       id="path867"
       sodipodi:nodetypes="cccccccc" />
    <path
       style="fill:#303030;fill-opacity:1;stroke:#303030;stroke-width:0.264583px;stroke-linecap:butt;stroke-linejoin:miter;stroke-opacity:1"
       d="m 20.887788,141.14597 c -0.199917,-0.0532 -0.535764,0.0348 -0.91418,-0.0514 -0.152534,-0.12481 -0.285355,-0.082 -0.424506,-0.093 l -0.336454,0.17696 -0.242968,1.53538 c 0.0074,0.14763 0.06072,0.27277 0.13802,0.3862 0.202137,0.19179 0.487131,0.29472 0.74488,0.42687 0.307909,0.20928 0.655311,0.27285 1.0014,0.33886 0.282311,-0.15246 0.699423,-0.16009 0.846933,-0.45739 0.02564,-0.48602 0.0025,-1.37158 -0.112328,-1.60914 z"
       id="path4006"
       sodipodi:nodetypes="ccccccccccc" />
    <path
       style="fill:none;stroke:#303030;stroke-width:2.10000005;stroke-linecap:butt;stroke-linejoin:miter;stroke-miterlimit:4;stroke-dasharray:none;stroke-opacity:1"
       d="m 20.469669,143.34775 c 0.163478,2.49257 0.257479,4.47843 0.236198,6.50702 -0.0027,0.56034 0.0114,1.11558 0.106138,1.64638 0.478608,1.78481 0.756989,3.7068 0.800238,4.82349 -0.312316,2.76843 -0.259083,2.87067 -0.231211,4.18517"
       id="path4154"
       sodipodi:nodetypes="ccccc" />
    <path
       style="fill:none;stroke:#303030;stroke-width:1.70000004;stroke-linecap:round;stroke-linejoin:miter;stroke-miterlimit:4;stroke-dasharray:none;stroke-opacity:1"
       d="m 24.352247,162.04212 c -0.477992,0.17696 -0.348628,0.1711 -0.970075,0.0569 -0.387207,-0.0628 -0.643986,-1.1088 -1.260506,-1.44403 -0.213139,-0.1149 -0.579769,-0.0864 -0.813911,-0.06 -0.449082,0.0316 -0.563068,0.72679 -0.988089,0.94417 -0.124797,0.0876 -0.251485,0.18037 -0.449714,0.19383 -0.08419,0.003 -0.459811,0.006 -0.745572,0.0856 -0.693205,0.25234 -1.755491,1.13766 -2.172645,1.11482 -0.688805,-0.0464 -1.874876,0.15581 -2.066415,-0.13905 -0.08835,-0.16923 -0.297687,-0.39222 -0.44653,-0.58833"
       id="path7075"
       sodipodi:nodetypes="cccccccccc" />
    <path
       style="fill:none;stroke:#303030;stroke-width:1.20000003;stroke-linecap:butt;stroke-linejoin:miter;stroke-miterlimit:4;stroke-dasharray:none;stroke-opacity:1"
       d="m 23.396201,140.07867 1.121731,-1.9725 0.432258,-1.07317 -0.188785,-8.27526 c -0.656056,-0.56646 -3.084192,-2.45314 -3.024351,-2.40554"
       id="path12856"
       sodipodi:nodetypes="ccccc" />
    <path
       style="fill:none;stroke:#303030;stroke-width:2.30000006;stroke-linecap:round;stroke-linejoin:miter;stroke-miterlimit:4;stroke-dasharray:none;stroke-opacity:1"
       d="m 19.14513,141.1928 c -2.160746,-1.12112 -2.177727,-1.09485 -2.165985,-1.15924 0.09061,-1.4507 0.815161,-2.59944 1.222742,-3.89916 l 1.524374,-4.58398 c 0.290886,-0.84736 0.765879,-1.5526 1.012478,-2.33327 0.124111,-0.77343 0.0707,-1.5523 0.372333,-2.32032 0.06579,-0.23916 0.548753,-0.36148 0.497875,-0.32203"
       id="path12858"
       sodipodi:nodetypes="ccccccc" />
    <path
       style="fill:none;stroke:#303030;stroke-width:0.90000002;stroke-linecap:round;stroke-linejoin:miter;stroke-miterlimit:4;stroke-dasharray:none;stroke-opacity:1"
       d="m 24.405797,132.74078 c -0.689386,0.0669 -1.328236,0.008 -2.068159,0.20084 -0.147003,0.0892 -0.189253,0.27412 -0.228079,0.45808 -0.08454,0.31492 -0.140754,0.71855 -0.253605,0.94477 -0.312815,0.49563 -0.799551,0.90071 -1.199327,1.35107"
       id="path16462"
       sodipodi:nodetypes="ccccc" />
    <path
       style="fill:none;stroke:#303030;stroke-width:0.50000001;stroke-linecap:round;stroke-linejoin:miter;stroke-miterlimit:4;stroke-dasharray:none;stroke-opacity:1"
       d="m 23.736051,128.56317 c -0.305383,0.37764 -0.530966,1.74985 -0.796449,2.62477"
       id="path16464"
       sodipodi:nodetypes="cc" />
    <path
       style="fill:none;stroke:#303030;stroke-width:2.30000006;stroke-linecap:round;stroke-linejoin:round;stroke-miterlimit:4;stroke-dasharray:none;stroke-opacity:1;paint-order:normal"
       d="m 21.737054,126.3522 c -0.575421,-0.96614 -1.194265,-1.89895 -1.723819,-2.9003 -0.994311,-2.03214 -1.939934,-4.10359 -2.682925,-6.25904 -0.670168,-2.76716 -1.120098,-4.86873 -1.628598,-8.44724 0.707999,-0.23909 2.685219,-0.31793 4.045324,-0.26433 1.451383,0.0342 3.874731,-0.0285 4.221325,0.3888"
       id="path17323"
       sodipodi:nodetypes="cccccc" />
    <path
       style="fill:none;stroke:#303030;stroke-width:1.20000003;stroke-linecap:round;stroke-linejoin:round;stroke-miterlimit:4;stroke-dasharray:none;stroke-opacity:1"
       d="m 23.968361,108.87009 c 0.932376,-0.0954 0.438268,4.38054 0.621305,6.56212 l 0.192462,7.35652 -0.02072,5.96901"
       id="path21113"
       sodipodi:nodetypes="cccc" />
    <path
       style="fill:none;stroke:#303030;stroke-width:0.565;stroke-linecap:round;stroke-linejoin:round;stroke-miterlimit:4;stroke-dasharray:none;stroke-opacity:1"
       d="m 22.45677,140.36257 c 0.08178,-0.49014 0.210581,-0.58615 0.245107,-1.47223 0.05945,-0.45006 0.10676,-0.7676 0.668273,-1.12007 0.58572,-0.3867 0.965057,-0.51163 1.58004,-0.73727"
       id="path22429"
       sodipodi:nodetypes="cccc" />
    <path
       style="fill:none;stroke:#303030;stroke-width:2.30000006;stroke-linecap:round;stroke-linejoin:round;stroke-miterlimit:4;stroke-dasharray:none;stroke-opacity:1"
       d="m 23.968361,108.87009 c -0.550593,-0.95026 -0.733685,-1.51835 -1.269463,-2.35879 -0.512906,-0.98461 -1.139321,-4.43251 -1.140887,-4.65221 -0.09195,-1.09402 -0.190936,-3.194048 -0.171033,-3.456696 0.11716,-2.158966 0.316636,-4.434027 0.640053,-6.265897 0.285097,-1.772287 1.356242,-4.240806 1.650893,-4.641972 0.574605,-1.012409 0.482815,-2.627022 1.43587,-3.578495 0.182638,-0.170187 0.471084,-0.232592 0.745927,-0.263005 0.634856,-0.03634 1.255342,-0.120236 1.806324,-0.307167 1.473623,-0.586923 3.924462,-1.869554 4.435378,-1.960576 0.718904,-0.130659 2.070622,-0.442006 2.807902,-0.432515 1.099538,0.0918 1.141411,0.246186 1.693304,0.370392"
       id="path878"
       sodipodi:nodetypes="cccccccccccc" />
    <path
       style="fill:none;stroke:#303030;stroke-width:1.20000003;stroke-linecap:butt;stroke-linejoin:miter;stroke-miterlimit:4;stroke-dasharray:none;stroke-opacity:1"
       d="m 23.968361,108.87009 1.07914,-1.80484 1.0756,-2.01009 0.897647,-6.351768 0.682091,-3.187759 2.01585,-6.05926 2.417992,-4.268644 4.465948,-3.864571"
       id="path7311" />
    <path
       style="fill:none;stroke:#303030;stroke-width:0.8;stroke-linecap:butt;stroke-linejoin:miter;stroke-miterlimit:4;stroke-dasharray:none;stroke-opacity:1"
       d="m 23.677924,87.494525 5.089701,-1.051227 3.369056,-1.255569"
       id="path7313" />
    <path
       style="fill:none;stroke:#303030;stroke-width:1;stroke-linecap:butt;stroke-linejoin:miter;stroke-miterlimit:4;stroke-dasharray:none;stroke-opacity:1"
       d="m 73.466607,132.7411 c -0.0049,-0.37397 -1.31012,-0.89308 -1.418016,-1.25833 -0.122839,-0.443 -0.140978,-3.05597 0.155159,-3.25982 2.603542,-1.52032 2.658425,-3.11153 3.616666,-3.30127 1.737873,-0.0483 4.503396,-1.27761 6.775626,-1.93742"
       id="path881"
       sodipodi:nodetypes="ccccc" />
    <path
       style="fill:none;stroke:#303030;stroke-width:1;stroke-linecap:butt;stroke-linejoin:miter;stroke-miterlimit:4;stroke-dasharray:none;stroke-opacity:1"
       d="m 82.596042,122.98426 c 0.37962,-0.1112 0.604667,-0.32893 1.321142,-0.4466 2.680563,-0.31853 7.841179,-0.1432 8.11282,-0.12103 0.550127,0.1167 2.437864,0.62814 3.811778,0.80745 0.495775,0.097 0.851858,0.37691 1.244549,0.60174 0.394412,0.22674 0.920374,0.54098 1.270325,0.70746 0.805255,0.36655 0.701071,0.47333 1.404519,0.7276 0.382185,0.11722 7.112085,-0.42793 10.503225,-0.019 l 7.0142,4.52334"
       id="path3688"
       sodipodi:nodetypes="ccccccccc" />
    <path
       style="fill:none;stroke:#303030;stroke-width:0.264583px;stroke-linecap:butt;stroke-linejoin:miter;stroke-opacity:1"
       d="m 117.07818,130.073 c 0.39588,0.25289 0.85421,0.76195 1.04744,0.69136 0.0769,-0.0424 0.22427,-0.25931 0.068,-0.89799 -0.0981,-0.23103 -0.58778,-1.13582 -0.95513,-1.74787 l -2.39111,-3.79745"
       id="path7029"
       sodipodi:nodetypes="ccccc" />
    <path
       style="fill:none;stroke:#303030;stroke-width:0.264583px;stroke-linecap:butt;stroke-linejoin:miter;stroke-opacity:1"
       d="m 114.86172,124.38718 c 0.48565,-0.64825 1.13166,-0.98606 2.30786,-1.33723 0.40258,-0.10941 0.42798,-0.12192 0.62801,-0.21373 0.70673,-0.38865 2.02689,-1.27823 2.05926,-1.37728 0.0775,-0.14139 -0.002,-0.39146 -0.10949,-0.49055 -0.24644,-0.23928 -0.40093,-0.27648 -0.71056,-0.38759 l -2.13561,-0.79526 c -0.41864,-0.13369 -1.27329,-0.4066 -1.25593,-0.40106"
       id="path884"
       sodipodi:nodetypes="cccccccc" />
    <path
       style="fill:none;stroke:#303030;stroke-width:0.264583px;stroke-linecap:butt;stroke-linejoin:miter;stroke-opacity:1"
       d="m 115.64526,119.38448 c -0.0876,-0.0363 0.09,-0.31484 0.17129,-0.43795 0.19451,-0.18144 0.52439,-0.48659 0.89287,-0.8705 0.81638,-0.82803 1.81799,-1.87036 2.7227,-2.80036 0.18416,-0.18524 0.35618,-0.3337 0.4241,-0.53975 -0.0798,-0.37822 -1.18693,-0.57801 -1.50706,-1.24655 -0.11625,-0.13433 -0.45925,-0.30847 -0.60601,-0.35914 -0.52494,-0.16781 -1.23772,-0.23663 -1.273,-0.1493 -0.18663,0.38162 -0.57287,0.94821 -0.70099,0.99526 -0.21979,-0.003 -0.51253,-0.0296 -0.70607,-0.15424 -0.0665,-0.0314 -0.12866,-0.0858 -0.25006,-0.0997 -0.28478,-0.0165 -0.43812,0.0252 -0.52147,0.0944"
       id="path5765"
       sodipodi:nodetypes="cccccccccccc" />
    <path
       style="fill:none;stroke:#303030;stroke-width:0.276172;stroke-linecap:butt;stroke-linejoin:miter;stroke-miterlimit:4;stroke-dasharray:none;stroke-opacity:1"
       d="m 114.28704,113.82031 c 0.11917,-0.15293 -4.29726,5.14998 -6.38549,7.82991 -0.34861,0.11643 -3.02434,-0.45319 -4.53651,-0.67978 l -4.841787,-1.31845"
       id="path14903"
       sodipodi:nodetypes="cccc" />
    <path
       style="fill:none;stroke:#303030;stroke-width:1;stroke-linecap:butt;stroke-linejoin:miter;stroke-miterlimit:4;stroke-dasharray:none;stroke-opacity:1"
       d="m 73.239563,115.89696 c 1.531535,-0.54212 6.667483,-0.95912 10.001224,-1.43868"
       id="path21693"
       sodipodi:nodetypes="cc" />
    <path
       style="fill:none;stroke:#303030;stroke-width:1;stroke-linecap:butt;stroke-linejoin:round;stroke-miterlimit:4;stroke-dasharray:none;stroke-opacity:1"
       d="m 83.240787,114.45828 c 1.438401,-0.17923 3.204329,-0.2398 4.758168,-0.39594 2.64274,-0.37272 4.480843,-0.7086 6.001404,-0.94041 0.707177,-0.10373 0.861661,-0.15436 1.231107,-0.24888 0.643713,-0.21599 1.877492,-1.13944 3.141522,-1.88099 0.287561,-0.15962 0.682056,-1.00552 1.129397,-1.12681 0.315446,-0.11548 1.760455,-0.25852 2.433805,-0.3059"
       id="path22373"
       sodipodi:nodetypes="ccccccc" />
    <path
       style="fill:none;stroke:#303030;stroke-width:0.264583px;stroke-linecap:butt;stroke-linejoin:miter;stroke-opacity:1"
       d="m 101.94454,109.98541 c 0.36447,0.5126 0.871,1.1774 1.09341,1.5378 0.32974,0.56593 0.91313,1.37442 0.91147,1.67753 -0.0118,0.35275 -0.12038,0.69446 -0.0545,0.7766 0.52165,1.15703 1.18111,2.77782 1.28512,2.83573 0.1759,0.0301 0.35936,-0.002 0.46898,-0.12092 0.23744,-0.25729 1.51245,-2.38887 1.57245,-2.68565 0.22571,-0.91158 0.35127,-1.90352 0.44964,-2.05989 0.21744,-0.25 4.19982,-0.6274 4.33569,-0.70369 0.097,-0.0637 0.24022,-0.67417 0.14039,-0.7981 -0.0951,-0.12239 -0.42215,-0.31832 -0.57249,-0.4413 -0.46954,-0.45238 -0.8825,-1.15418 -1.13063,-1.4036 -0.15327,-0.22055 -0.38338,-0.42641 -0.60261,-0.55053 -0.17127,-0.0637 -0.33545,-0.0386 -0.5012,-0.0332 l 1.76654,-3.63432"
       id="path27450"
       sodipodi:nodetypes="ccccccccccccccc" />
    <path
       style="fill:none;stroke:#303030;stroke-width:0.264583px;stroke-linecap:butt;stroke-linejoin:miter;stroke-opacity:1"
       d="m 111.1068,104.38187 c 0.0594,-0.12054 0.16057,-0.69892 0.0724,-0.86861 -0.13503,-0.16936 -0.86684,0.15854 -0.93913,0.1823 -0.2165,0.0865 -2.31694,1.93166 -2.5816,2.13705 -0.59583,0.26054 -2.03001,0.46688 -2.16607,0.18474 -0.0355,-0.22753 0.35741,-0.47548 0.40135,-0.66445 -0.0177,-0.15787 -1.8846,-0.99432 -2.83479,-1.61261"
       id="path891"
       sodipodi:nodetypes="ccccccc" />
    <path
       style="fill:none;stroke:#303030;stroke-width:0.264583px;stroke-linecap:butt;stroke-linejoin:miter;stroke-opacity:1"
       d="m 103.05896,103.74029 c -0.14465,-0.20241 -0.17554,-0.45454 -0.28019,-0.48758 -0.44306,-0.0726 -1.99209,-0.0756 -2.10616,0.0362 -0.720707,0.85852 -1.818176,-0.0808 -3.801886,0.62543"
       id="path4579"
       sodipodi:nodetypes="cccc" />
    <path
       style="fill:none;stroke:#303030;stroke-width:0.997619;stroke-linecap:butt;stroke-linejoin:miter;stroke-miterlimit:4;stroke-dasharray:none;stroke-opacity:1"
       d="m 96.963602,104.27051 c -1.716046,0.31225 -3.03271,3.04394 -4.63166,4.67123 -0.686652,0.28991 -1.011073,0.19827 -2.339612,0.50615 -0.706011,0.28456 -0.918986,0.79035 -1.578586,0.94614 -2.185283,0.32319 -4.983203,0.55528 -6.603323,0.76497 -1.139592,0.18469 -2.454537,0.33508 -2.888303,0.53919 -1.057632,0.48679 -2.123702,0.79957 -4.230852,0.33742 -0.399796,-0.85403 -0.06288,-1.59212 0.362971,-2.63924 0,0 -0.02986,-0.85569 -0.596801,-1.80756 -0.206872,-0.33855 -0.204468,-0.37431 -1.756799,-1.09542 -2.181881,-1.89571 -1.866354,-5.53106 -1.533908,-8.292854 0.363299,-0.43912 3.768492,-2.093706 5.420113,-2.78733 0.59628,-0.222978 6.732493,-0.57331 7.223127,-0.718786 3.921316,-1.070651 7.060053,-1.711855 8.345653,-1.779763 5.278656,-0.04469 7.153457,1.119282 10.674538,1.695741 2.78636,0.851469 6.2888,2.260066 8.40429,2.215127 1.40185,-0.09668 2.01591,-0.289954 3.09571,-0.505586 4.65322,-0.556878 13.90072,0.0049 14.95354,0.213188"
       id="path6200"
       sodipodi:nodetypes="cccccccccccccccccc" />
    <path
       style="fill:none;stroke:#303030;stroke-width:0.9;stroke-linecap:butt;stroke-linejoin:miter;stroke-miterlimit:4;stroke-dasharray:none;stroke-opacity:1"
       d="m 165.88504,84.102451 c 0.21054,-0.105411 0.37166,-0.498168 0.50881,-1.059493 0.31345,-1.29416 0.26207,-3.088748 0.39463,-4.763966 -0.0878,-1.945088 -0.20576,-5.442593 -0.25715,-8.489057"
       id="path24303"
       sodipodi:nodetypes="cccc" />
    <path
       style="fill:none;stroke:#303030;stroke-width:1;stroke-linecap:butt;stroke-linejoin:miter;stroke-miterlimit:4;stroke-dasharray:none;stroke-opacity:1"
       d="m 129.2837,96.533127 c 0.203,0.107873 2.46512,-0.249463 7.70956,-0.186685 2.02283,-0.04028 3.75893,-0.184471 5.89708,-0.446662 2.81299,-0.388519 6.7611,-1.465332 8.22025,-2.078614 2.36648,-0.957466 3.77662,-1.414003 6.83013,-3.217426 1.62641,-0.72336 2.66094,-2.172718 4.0369,-3.983801 0.78255,-0.989574 2.99795,-2.542534 4.11836,-2.614483"
       id="path29770"
       sodipodi:nodetypes="ccccccc" />
    <path
       style="fill:none;stroke:#303030;stroke-width:1;stroke-linecap:butt;stroke-linejoin:miter;stroke-miterlimit:4;stroke-dasharray:none;stroke-opacity:1"
       d="m 37.086115,81.219621 c 1.912864,-3.145188 2.899252,-6.175856 5.738593,-9.435563 2.029458,-1.851953 4.851588,-2.939858 7.295301,-4.183581 l 5.669317,-0.625242 -14.056241,12.14482 z"
       id="path39046"
       sodipodi:nodetypes="cccccc" />
    <path
       style="fill:none;stroke:#303030;stroke-width:1;stroke-linecap:butt;stroke-linejoin:miter;stroke-miterlimit:4;stroke-dasharray:none;stroke-opacity:1"
       d="m 41.557888,79.266986 3.268516,-9.596276 c 1.391077,-3.167355 1.765124,-2.705545 4.039292,-2.455757 l 5.882578,0.780932"
       id="path39163"
       sodipodi:nodetypes="cccc" />
    <path
       style="fill:none;stroke:#303030;stroke-width:1;stroke-linecap:butt;stroke-linejoin:miter;stroke-miterlimit:4;stroke-dasharray:none;stroke-opacity:1"
       d="m 47.417189,68.896161 c 2.237094,0.313705 4.399218,0.217831 6.299111,-0.122911"
       id="path41369"
       sodipodi:nodetypes="cc" />
    <path
       style="fill:none;stroke:#303030;stroke-width:1;stroke-linecap:butt;stroke-linejoin:miter;stroke-miterlimit:4;stroke-dasharray:none;stroke-opacity:1"
       d="m 55.789326,66.975235 c 7.398555,-6.384061 9.457594,-15.176167 11.135463,-20.770682 0.367837,-2.604631 1.196148,-4.248701 2.13817,-6.41838 1.910333,-4.222853 6.837559,-9.422417 8.1181,-10.61767 2.965989,-3.00096 6.0148,-5.466244 9.271693,-7.547683 2.160393,-1.336753 2.953831,-2.653352 5.677397,-3.188359"
       id="path42050"
       sodipodi:nodetypes="cccccc" />
    <path
       style="fill:none;stroke:#303030;stroke-width:0.264583px;stroke-linecap:butt;stroke-linejoin:miter;stroke-opacity:1"
       d="m 64.822006,52.144183 c -2.01684,0.36051 -2.87389,2.302402 -2.87389,2.302402 l 2.580795,-0.395267"
       id="path900"
       sodipodi:nodetypes="ccc" />
    <path
       style="fill:none;stroke:#303030;stroke-width:0.264583px;stroke-linecap:butt;stroke-linejoin:miter;stroke-opacity:1"
       d="m 60.120061,61.495505 c -2.375811,0.04773 -1.748522,2.447123 -1.748522,2.447123"
       id="path1334"
       sodipodi:nodetypes="cc" />
    <path
       style="fill:none;stroke:#303030;stroke-width:0.258798px;stroke-linecap:round;stroke-linejoin:round;stroke-opacity:1;paint-order:markers fill stroke"
       d="m 70.284295,37.68882 c -3.873733,2.934101 -5.226743,4.559794 -5.688553,5.507246 1.42958,-1.057616 1.843185,-1.4762 4.233937,-2.761031"
       id="path1616"
       sodipodi:nodetypes="ccc" />
    <path
       style="fill:none;stroke:#303030;stroke-width:0.264583;stroke-linecap:butt;stroke-linejoin:miter;stroke-miterlimit:4;stroke-dasharray:none;stroke-opacity:1;paint-order:markers fill stroke"
       d="m 78.373732,27.673975 c -4.195097,1.891688 -7.619769,4.349738 -8.107231,5.242516 2.926388,-1.776428 3.989088,-2.200762 5.610359,-2.66652"
       id="path5301"
       sodipodi:nodetypes="ccc" />
    <path
       style="fill:none;stroke:#303030;stroke-width:0.29104167;stroke-linecap:square;stroke-linejoin:round;stroke-opacity:1;stroke-miterlimit:4;stroke-dasharray:none"
       d="m 87.029009,20.842324 c -3.563429,1.551305 -6.446319,3.194349 -7.557617,4.164479 1.995881,-0.639123 2.438763,-0.843791 3.624147,-1.135522"
       id="path8536"
       sodipodi:nodetypes="ccc" />
    <path
       style="fill:none;stroke:#303030;stroke-width:1;stroke-linecap:butt;stroke-linejoin:miter;stroke-miterlimit:4;stroke-dasharray:none;stroke-opacity:1"
       d="m 91.864677,18.451187 c 4.35293,-0.0094 11.136993,0.05176 14.353753,0.898104 3.63555,1.241779 6.02483,2.574608 7.47941,3.570659 2.00159,1.399571 4.28876,3.36913 5.50179,4.901975 2.43065,3.213963 3.58033,5.638972 4.63872,8.526391"
       id="path10624"
       sodipodi:nodetypes="ccccc" />
    <path
       style="fill:none;stroke:#303030;stroke-width:1;stroke-linecap:butt;stroke-linejoin:miter;stroke-miterlimit:4;stroke-dasharray:none;stroke-opacity:1"
       d="m 123.88758,36.295183 c 7.59821,-0.558716 18.54223,-0.341892 22.92234,0.06072 8.75294,1.045913 11.06097,1.986195 13.36796,2.84073 5.98283,2.327187 11.33024,5.818059 12.23868,7.866314 1.42382,3.259759 3.75408,8.996121 4.24217,11.865355 0.21591,1.803779 -0.0827,4.727811 -0.63462,7.540738"
       id="path972"
       sodipodi:nodetypes="cccccc" />
    <path
       style="fill:none;stroke:#303030;stroke-width:0.264583px;stroke-linecap:square;stroke-linejoin:round;stroke-opacity:1"
       d="m 176.40425,66.491718 c -0.23731,1.503352 -0.5912,1.348359 -0.5912,1.348359 -3.62119,-4.67576 -5.65956,-8.828537 -10.80755,-13.258891"
       id="path9957"
       sodipodi:nodetypes="ccc" />
    <path
       style="fill:none;stroke:#303030;stroke-width:0.264583px;stroke-linecap:round;stroke-linejoin:round;stroke-opacity:1"
       d="m 164.92401,54.523382 c -0.37036,8.168877 -3.90096,9.81973 -6.01773,14.260471 -3.86838,-8.933863 -7.89211,-12.65127 -12.70655,-15.192114"
       id="path11364"
       sodipodi:nodetypes="ccc" />
    <path
       style="fill:none;stroke:#303030;stroke-width:0.264583px;stroke-linecap:butt;stroke-linejoin:round;stroke-opacity:1"
       d="m 146.27274,53.533479 c 1.01011,9.75226 -1.73206,16.093459 -2.95884,17.449529 -3.37794,-11.13861 -15.8865,-14.240556 -17.78096,-14.748663"
       id="path13192"
       sodipodi:nodetypes="ccc" />
    <path
       style="fill:none;stroke:#303030;stroke-width:0.264583px;stroke-linecap:butt;stroke-linejoin:round;stroke-opacity:1"
       d="m 122.18983,68.730192 c 1.17211,-1.096636 2.79796,-7.275667 3.42366,-12.482303"
       id="path15694"
       sodipodi:nodetypes="cc" />
    <path
       style="fill:none;stroke:#303030;stroke-width:0.264583px;stroke-linecap:round;stroke-linejoin:bevel;stroke-opacity:1"
       d="m 122.18983,68.730192 c -1.45381,-5.245644 -3.84567,-7.416042 -7.08205,-10.559537"
       id="path16611"
       sodipodi:nodetypes="cc" />
    <path
       style="fill:none;stroke:#303030;stroke-width:0.264583px;stroke-linecap:butt;stroke-linejoin:miter;stroke-opacity:1"
       d="m 115.10778,58.170655 c -5.85298,5.098525 -11.8456,12.43406 -12.6898,13.754741 -1.55728,1.416067 -5.456742,3.071681 -7.697972,3.749413"
       id="path18194"
       sodipodi:nodetypes="ccc" />
    <path
       style="fill:none;stroke:#303030;stroke-width:0.264583px;stroke-linecap:round;stroke-linejoin:round;stroke-opacity:1"
       d="m 94.720008,75.674809 c 6.960342,0.490051 11.953362,0.865698 14.504552,1.472316 1.08202,-0.997362 2.44021,-1.774464 3.59803,-2.376148 -0.17438,0.866623 -0.90793,1.782884 -1.5658,2.665429 0.21839,0.766969 0.43929,1.059368 0.46281,1.457044 1.97004,-0.04788 5.70331,-0.33969 6.91744,-0.942515 2.04133,-1.04611 6.13206,-2.527374 10.61751,-9.008287 0.16989,-0.173654 0.7893,-0.451893 1.0834,-0.56323 0.40895,0.363577 0.51843,0.64947 0.55925,0.995085 -0.005,1.929037 -0.0361,4.507093 -0.20193,5.409092 -0.75973,3.087214 -2.20514,5.671579 -4.25221,8.505914"
       id="path20038"
       sodipodi:nodetypes="ccccccccccc" />
    <path
       style="fill:none;stroke:#303030;stroke-width:0.264583px;stroke-linecap:round;stroke-linejoin:round;stroke-opacity:1"
       d="m 126.44306,83.28951 c 2.92433,-0.03499 7.62545,-0.503994 9.98206,-1.005253 5.54233,-1.901201 10.14999,-5.650792 11.51432,-8.067774 0.42358,-1.240224 0.26305,-3.734483 1.24811,-4.12463"
       id="path25657"
       sodipodi:nodetypes="cccc" />
    <path
       style="fill:none;stroke:#303030;stroke-width:0.264583px;stroke-linecap:round;stroke-linejoin:round;stroke-opacity:1"
       d="m 149.18755,70.091853 0.40536,-0.217331 c -0.0743,4.002956 -0.28867,5.530991 -0.4864,5.968484 -1.0586,2.371813 -2.36376,4.266962 -3.35595,6.347523"
       id="path28531"
       sodipodi:nodetypes="cccc" />
    <path
       style="fill:none;stroke:#303030;stroke-width:0.264583px;stroke-linecap:round;stroke-linejoin:round;stroke-opacity:1"
       d="m 145.75056,82.190529 c 0.3713,0.502964 1.19304,0.61743 1.72409,0.524477 1.87657,-0.674741 5.48593,-2.013271 8.90372,-3.234014 5.7273,-2.160012 7.22106,-5.590686 8.97179,-8.944235 0.11236,-0.241424 0.25758,-0.476413 0.68828,-1.992684 0.3102,0.127071 0.60217,0.240611 0.72855,0.499812 0.0956,0.380377 0.0883,0.524648 0.0915,0.802037"
       id="path31367"
       sodipodi:nodetypes="ccccccc" />
    <path
       style="display:inline;fill:none;stroke:#303030;stroke-width:1;stroke-linecap:butt;stroke-linejoin:miter;stroke-miterlimit:4;stroke-dasharray:none;stroke-opacity:1"
       d="m 92.701867,43.770754 c -8.493445,-2.936342 -5.310088,-12.766028 3.786445,-13.914547 13.661938,-1.622894 8.430158,9.991772 5.270238,11.962039"
       id="path1396"
       sodipodi:nodetypes="ccc" />
    <path
       style="display:inline;fill:none;stroke:#303030;stroke-width:1;stroke-linecap:round;stroke-linejoin:round;stroke-miterlimit:4;stroke-dasharray:none;stroke-opacity:1"
       d="m 92.701866,43.770755 c 2.515334,0.689549 5.995497,0.231846 9.056684,-1.952509"
       id="path3307"
       sodipodi:nodetypes="cc" />
    <path
       style="display:inline;fill:none;stroke:#303030;stroke-width:0.90000002;stroke-linecap:round;stroke-linejoin:round;stroke-miterlimit:4;stroke-dasharray:none;stroke-opacity:1"
       d="M 103.28044,40.334259 C 106.45543,29.33338 97.250243,29.702086 93.249852,31.727289"
       id="path5427"
       sodipodi:nodetypes="cc" />
    <path
       style="display:inline;fill:none;stroke:#303030;stroke-width:0.90000002;stroke-linecap:round;stroke-linejoin:round;stroke-miterlimit:4;stroke-dasharray:none;stroke-opacity:1"
       d="m 93.249852,31.727289 c -2.590586,1.481585 -4.74805,5.348421 -4.538827,8.970846"
       id="path5673"
       sodipodi:nodetypes="cc" />
    <ellipse
       style="fill:#303030;fill-opacity:1;stroke:#303030;stroke-width:1;stroke-linecap:round;stroke-linejoin:round;stroke-miterlimit:4;stroke-dasharray:none;paint-order:markers fill stroke"
       id="path11671"
       cx="95.907425"
       cy="36.73608"
       rx="1.0783417"
       ry="0.76249188" />
    <path
       style="display:inline;fill:#303030;fill-opacity:1;stroke:#303030;stroke-width:0.265;stroke-linecap:round;stroke-linejoin:round;stroke-miterlimit:4;stroke-dasharray:none;stroke-opacity:1"
       d="m 97.336376,37.057561 c -0.06253,0.588903 -0.07538,1.383139 -0.378741,1.834497 -0.538596,0.641218 -1.266074,0.960094 -1.953367,0.979979 -0.55899,-0.102275 -0.74368,-0.531598 -0.81928,-1.05624 0.133819,-0.212424 0.793958,-0.175865 1.02605,-0.380641 0.225688,-0.472869 -0.437445,-1.011153 -0.703541,-1.45665 z"
       id="path11747"
       sodipodi:nodetypes="ccccccc" />
    <path
       style="fill:none;stroke:#303030;stroke-width:1;stroke-linecap:round;stroke-linejoin:round;stroke-miterlimit:4;stroke-dasharray:none;stroke-opacity:1"
       d="m 73.239563,115.89696 c 0.461474,-0.14856 -1.29691,0.38241 -2.017678,0.99242 -1.139395,1.09705 -1.463032,2.35633 -1.590592,2.63231 -0.40972,1.17416 -0.782172,2.48524 -0.962272,3.18417 0.960173,-0.24241 1.551187,-0.5647 2.218215,-0.91679 0.822332,-0.59543 3.125011,-1.87079 6.959932,-2.91577 0.738613,-0.25514 3.346172,-0.51436 5.354663,-0.8027 2.193327,-0.16294 4.403861,-0.47151 6.351584,-0.91144 0.475496,-0.14029 0.851145,-0.22582 2.199522,-0.51167 0.414199,-0.0241 3.943406,2.25872 6.745616,3.35654"
       id="path1004"
       sodipodi:nodetypes="cccccccccc" />
    <path
       style="fill:none;stroke:#303030;stroke-width:0.399524px;stroke-linecap:round;stroke-linejoin:round;stroke-opacity:1"
       d="m 19.408804,122.1201 c 2.06129,0.29453 3.914341,0.42957 5.288799,0.19806"
       id="path4581"
       sodipodi:nodetypes="cc" />
    <path
       style="fill:#303030;stroke:#303030;stroke-width:0.0531165;stroke-linejoin:round;paint-order:stroke fill markers"
       d="m 91.003055,519.41931 c -1.074293,0.29754 -1.981028,1.01941 -2.913924,1.60731 -0.974003,0.66652 -1.846339,1.61393 -1.986033,2.83476 -0.199232,1.04861 -0.287382,2.12843 -0.328429,3.1868 0.04997,0.77534 0.939292,0.97418 1.583058,0.87903 0.823388,0.12488 1.27239,-0.63731 1.572518,-1.27497 1.044077,-1.92928 2.256006,-3.77727 3.163164,-5.77573 0.282487,-0.71526 -0.302011,-1.56095 -1.090354,-1.4572 z"
       id="path968"
       transform="scale(0.26458334)" />
    <path
       style="fill:#303030;stroke:#303030;stroke-width:0.0136332;stroke-linejoin:round;paint-order:stroke fill markers"
       d="m 20.570939,122.35469 c -0.220328,-9.6e-4 -0.336832,0.25665 -0.211635,0.41806 0.533119,1.09682 1.255593,2.10921 1.904659,3.13752 0.126062,0.18982 0.238757,0.39618 0.218164,0.62767 -0.0044,0.25533 0.29205,0.3458 0.458503,0.49778 0.40153,0.2871 0.784792,0.60257 1.196697,0.87348 0.199967,0.10411 0.423881,-0.0915 0.385176,-0.289 0.0085,-1.65971 0.0038,-3.31947 0.0051,-4.97919 -0.0062,-0.19435 -0.223627,-0.2788 -0.404231,-0.24934 -1.185432,-0.005 -2.36794,0.005 -3.552402,-0.0369 z"
       id="path1007" />
    <path
       style="fill:#303030;stroke:#303030;stroke-width:0.0531165;stroke-linejoin:round;paint-order:stroke fill markers"
       d="m 131.59126,308.79609 c -3.23053,0.19935 -6.40417,0.9146 -9.56043,1.5955 -1.76039,0.41537 -3.33719,1.35813 -4.99263,2.05726 -3.88634,1.77373 -7.70886,3.7034 -11.68827,5.26324 -2.53539,0.86896 -5.22496,1.06639 -7.86863,1.36346 -1.03489,0.18705 -1.478058,1.30623 -1.949205,2.11925 -0.87909,2.05183 -1.350637,4.25136 -1.872555,6.41351 -0.245869,0.79996 0.55389,1.66156 1.368983,1.37492 4.549602,-0.96592 9.143137,-1.85802 13.692737,-2.85832 3.68823,-1.40811 7.42697,-2.69072 11.07206,-4.20816 0.76306,-0.40047 1.27729,-1.12708 1.97348,-1.65646 3.52058,-3.15303 7.20306,-6.17773 10.69505,-9.38984 0.65948,-0.46021 0.75984,-1.58966 -0.0464,-1.95352 -0.25721,-0.12006 -0.54589,-0.12586 -0.82415,-0.12084 z m -11.12364,12.62244 c -0.15922,0.19303 0.0389,-0.0533 0,0 z"
       id="path1046"
       transform="scale(0.26458334)" />
    <path
       style="fill:#303030;stroke:#303030;stroke-width:0.0531165;stroke-linejoin:round;paint-order:stroke fill markers"
       d="m 164.24575,270.64616 c -0.88397,0.3846 -1.49165,1.20659 -2.17343,1.86176 -5.32155,6.16669 -9.51626,13.20478 -13.23018,20.42816 -1.61399,3.14498 -3.29058,6.24443 -4.88272,9.39471 -0.0684,0.17771 -0.0976,0.81336 0.26946,1.07165 0.68629,0.64027 1.55054,-0.038 2.23887,-0.29915 3.20279,-1.45927 6.43293,-2.87493 9.616,-4.36716 0.69855,-0.49041 0.68472,-1.47422 1.03435,-2.19513 2.79957,-8.21086 5.60797,-16.41904 8.35853,-24.64636 0.17641,-0.74077 -0.47327,-1.44047 -1.23088,-1.24848 z m -20.24853,31.60125 c 0.007,-0.0267 0.0461,-0.0879 0,0 z"
       id="path1085"
       transform="scale(0.26458334)" />
    <path
       style="fill:#303030;stroke:#303030;stroke-width:0.0531165;stroke-linejoin:round;paint-order:stroke fill markers"
       d="m 191.29845,256.22453 c -0.89953,0.0619 -1.80282,0.16616 -2.5732,0.67797 -0.98938,0.55869 -2.12347,0.89688 -3.00752,1.61598 -0.50474,0.71989 0.16795,1.70734 1.01404,1.59815 2.75925,0.0947 5.52683,0.0264 8.28292,-0.13025 2.17015,-0.21035 4.36352,-0.34138 6.4997,-0.78772 0.84574,-0.25465 0.91383,-1.56377 0.0847,-1.88008 -1.54785,-0.3716 -3.16052,-0.4776 -4.73633,-0.72184 -1.45814,-0.14545 -2.91026,-0.47491 -4.37246,-0.5028 -0.39729,0.0435 -0.79458,0.0871 -1.19188,0.13059 z"
       id="path1124"
       transform="scale(0.26458334)" />
    <path
       style="fill:#303030;stroke:#303030;stroke-width:0.0531165;stroke-linejoin:round;paint-order:stroke fill markers"
       d="m 178.05488,254.32349 c -1.63063,-0.0802 -3.06531,0.947 -3.97524,2.22525 -1.10265,1.51623 -2.00913,3.18382 -2.74073,4.90572 -0.23174,0.83794 0.75041,1.61726 1.50986,1.17805 3.78996,-1.98127 7.65709,-3.82219 11.49911,-5.71468 0.83566,-0.29451 0.88045,-1.59764 0.0352,-1.90726 -1.77508,-0.37 -3.59815,-0.50918 -5.40412,-0.66878 -0.30779,-0.0141 -0.61596,-0.0234 -0.9241,-0.0183 z"
       id="path1163"
       transform="scale(0.26458334)" />
    <path
       style="fill:#303030;stroke:#303030;stroke-width:0.0531165;stroke-linejoin:round;paint-order:stroke fill markers"
       d="m 225.83137,232.07949 c -2.30051,0.24456 -4.54268,1.66141 -5.38686,3.87459 -0.50261,1.38852 -0.71589,2.93392 -0.45392,4.39179 0.15017,0.87346 1.40528,1.03702 1.84394,0.29678 1.89336,-2.31564 3.74946,-4.67541 5.45127,-7.13141 0.48252,-0.74162 -0.32395,-1.71369 -1.14808,-1.47161 -0.10212,0.0133 -0.20424,0.0266 -0.30635,0.0399 z"
       id="path1202"
       transform="scale(0.26458334)" />
    <path
       style="fill:#303030;stroke:#303030;stroke-width:0.0531165;stroke-linejoin:round;paint-order:stroke fill markers"
       d="m 243.64663,196.97326 c -1.35396,0.26782 -2.60189,0.95629 -3.77933,1.65764 -2.34434,1.51704 -4.31608,3.6352 -5.6515,6.08466 -0.29149,0.80381 0.58457,1.57572 1.35969,1.30836 2.05464,-0.3437 4.13383,-0.58891 6.1762,-0.97562 0.86723,-0.27958 0.87868,-1.34898 1.23893,-2.04581 0.56944,-1.64205 1.25939,-3.25609 1.70553,-4.93337 0.0382,-0.57932 -0.45704,-1.12146 -1.04952,-1.09586 z"
       id="path1241"
       transform="scale(0.26458334)" />
    <path
       style="fill:#303030;stroke:#303030;stroke-width:0.0531165;stroke-linejoin:round;paint-order:stroke fill markers"
       d="m 260.17956,146.41236 c -0.87771,0.16391 -1.44819,0.96947 -2.15551,1.45446 -4.40422,3.71274 -8.8131,7.51486 -12.34621,12.0956 -0.59415,0.54278 -0.47471,1.6896 0.3706,1.89627 0.86498,0.20187 1.45068,-0.64897 2.12271,-1.0383 3.11325,-2.37151 6.46946,-4.40618 9.85992,-6.34315 0.63196,-0.58945 0.76108,-1.52648 1.16979,-2.26935 0.63438,-1.54654 1.43982,-3.02323 2.00589,-4.60285 0.10638,-0.62283 -0.39459,-1.19963 -1.02719,-1.19268 z"
       id="path1280"
       transform="scale(0.26458334)" />
    <path
       style="fill:#303030;stroke:#303030;stroke-width:0.0531165;stroke-linejoin:round;paint-order:stroke fill markers"
       d="m 291.58574,106.29769 c -2.73046,1.27391 -5.36204,2.76084 -7.99867,4.21964 -5.50007,3.12582 -10.87302,6.54125 -15.6977,10.6498 -0.62578,0.56132 -0.2326,1.71337 0.61941,1.75016 0.88831,-0.0836 1.58809,-0.75511 2.37704,-1.11948 3.36658,-1.89967 6.78217,-3.7253 10.36737,-5.15647 1.37051,-0.55808 2.8095,-0.95478 4.17647,-1.50253 1.07743,-0.86662 1.97538,-1.95871 2.9832,-2.91279 1.42977,-1.48273 2.9497,-2.89179 4.29723,-4.44666 0.45066,-0.77253 -0.25934,-1.69428 -1.12435,-1.48167 z"
       id="path1319"
       transform="scale(0.26458334)" />
    <path
       style="fill:#303030;stroke:#303030;stroke-width:0.00883884;stroke-linejoin:round;stroke-miterlimit:4;stroke-dasharray:none;paint-order:stroke fill markers"
       d="m 320.98868,81.985372 c -1.90528,0.763156 -3.70303,1.784854 -5.5459,2.688987 -4.31443,2.240009 -8.57856,4.609105 -12.58546,7.368123 -0.76287,0.456427 -0.50235,1.759674 0.38355,1.858084 0.846,0.04459 1.62654,-0.464651 2.43906,-0.656247 1.92949,-0.677824 3.91035,-1.225896 5.8252,-1.930424 3.2474,-2.449431 6.51543,-4.86219 9.8497,-7.174684 0.56584,-0.320283 1.1275,-1.046814 0.67518,-1.67872 -0.18438,-0.365959 -0.64173,-0.550017 -1.04133,-0.475119 z"
       id="path1711"
       transform="scale(0.26458334)" />
    <path
       id="path3290"
       style="fill:#303030;stroke:#303030;stroke-width:0.275;stroke-linejoin:round;stroke-miterlimit:4;stroke-dasharray:none;paint-order:stroke fill markers"
       d="m 351.66797,70.763672 -0.5,0.0078 h -0.0137 c -9.88712,-0.05789 -17.11302,7.73867 -24.95118,12.570313 -21.72194,14.852114 -41.24675,33.199745 -56.55078,54.654295 -8.01497,11.65003 -13.42679,25.03965 -16.27929,38.81836 -6.03935,22.42914 -13.88162,45.0194 -28.52735,63.41016 -1.6478,1.19968 -1.98545,2.57874 -1.40625,3.44141 -0.39648,8e-5 -0.79297,-9e-5 -1.18945,0 -1.8815,0.96618 -3.03176,3.01819 -4.61914,4.42382 -7.12595,6.97755 -14.8937,13.25061 -22.36524,19.86328 -12.31315,10.6552 -24.63869,21.29672 -36.96093,31.94141 -5.50097,2.63056 -11.24986,4.79419 -16.5586,7.80078 -1.0677,0.99704 -1.85853,2.85638 -3.63476,2.51367 -1.97949,0.27306 -3.28239,2.16084 -4.86914,3.22266 -3.6577,3.13217 -7.36175,6.2316 -10.91797,9.46875 -2.97218,5.40249 -6.22591,10.67641 -9.02344,16.1582 -3.87817,11.93303 -8.49369,23.74375 -10.20508,36.24805 -1.22436,7.42844 -2.06601,14.94962 -3.333981,22.34766 -1.907717,3.89769 -4.242286,7.57721 -6.197266,11.43945 -0.69124,3.79516 0.346762,7.6729 0.232422,11.47852 0.09801,18.92214 0.87989,37.86104 0.837891,56.80468 0.03514,13.5595 0.332111,27.11763 0.691406,40.67188 -1.405363,4.02283 -3.672422,7.64236 -5.654297,11.35156 0.02601,2.21722 0.01277,4.57918 0.482422,6.73828 0.946772,0.9724 3.093445,0.0117 3.787109,1.57617 0.713062,4.37337 0.331928,8.87353 0.794922,13.28711 0.289202,3.95427 0.542114,8.03181 2.433594,11.60938 1.49363,3.04618 2.737866,6.29389 2.642578,9.74414 0.34657,4.70048 -0.146725,10.14999 3.26367,13.91211 1.57822,1.35113 3.74481,0.0444 5.46289,-0.32422 3.0594,-0.73558 4.40343,-3.91447 6.21094,-6.1543 1.8587,-2.49127 3.36289,-5.30058 5.38477,-7.6289 3.68219,-2.62185 7.03344,-5.77778 11.01953,-7.94336 3.08772,-1.28122 5.82479,1.39423 8.23632,2.91211 1.77083,1.3289 3.7287,2.38485 5.95899,2.64843 6.47836,1.32995 12.95779,2.82228 19.52734,3.5918 3.77335,-1.01012 7.16624,-3.1281 10.73243,-4.68945 5.91204,-2.7773 11.68929,-5.8779 17.74804,-8.29297 2.32796,1.01815 4.08401,3.07876 6.31641,4.32031 9.16108,5.97737 21.32672,8.23931 31.56055,3.67969 6.04238,-2.3714 10.93373,-6.76208 15.50781,-11.23633 2.45523,-2.21513 5.39361,-3.97174 8.51758,-5.02734 4.35422,-0.4965 7.68982,3.17585 11.80273,3.78125 3.41108,-0.20275 6.76263,-1.26462 9.92969,-2.51172 2.5078,-1.1212 2.32516,-4.38786 2.2539,-6.69336 -0.61645,-9.41193 -1.96113,-18.79105 -2.13476,-28.20703 -0.27331,-5.56555 -0.18674,-11.16189 -0.67774,-16.70899 -1.42895,-2.07503 -4.98828,-2.62143 -5.23242,-5.51953 -0.15384,-3.65463 -0.38186,-7.33658 0.34571,-10.95898 0.84512,-2.34505 3.65215,-2.95507 5.22265,-4.69727 3.08816,-2.43587 4.97924,-5.99531 7.87305,-8.60351 2.10021,-1.34748 4.77429,-0.92786 7.08984,-1.70703 8.08438,-2.3144 16.00539,-5.18358 23.97656,-7.83985 5.76314,-1.07877 11.62376,-0.86088 17.45313,-1.02539 5.01674,0.0315 10.0673,-0.0211 15.06055,0.29883 5.01833,1.28544 10.11988,2.22728 15.17578,3.31445 4.65875,2.05306 8.83854,5.09064 13.49218,7.14453 4.40273,0.42889 8.85183,-0.16388 13.26368,-0.0996 8.99285,-0.0474 18.00621,-0.51545 26.95703,0.2793 8.6479,5.58904 17.33807,11.15573 25.95312,16.76758 -0.78175,0.90987 -1.37898,2.46203 -0.0937,3.23633 1.09528,0.73483 2.23415,2.40412 3.70313,1.82422 1.545,-1.40518 0.17475,-3.66316 -0.5293,-5.17383 -3.45367,-6.55949 -7.75608,-12.63907 -11.4082,-19.07422 3.39887,-4.0076 9.1326,-4.01612 13.24805,-6.93555 1.75836,-1.32559 4.11344,-2.19799 5.24804,-4.17383 0.56548,-2.05408 -1.9799,-2.85908 -3.42773,-3.45312 -4.0161,-1.70403 -8.17082,-3.04784 -12.27149,-4.51758 3.29037,-4.30332 7.44274,-7.87447 11.10352,-11.85742 1.50122,-1.69222 3.28926,-3.18529 4.55078,-5.06445 0.10365,-1.66183 -2.05105,-2.02563 -3.08008,-2.94532 -2.13305,-1.35789 -3.65588,-3.75579 -6.3418,-4.12109 -1.47609,-0.33513 -3.65235,-0.98944 -4.41015,0.86914 -0.75515,1.1643 -1.60194,3.34962 -3.39844,2.43555 -1.33868,-0.62185 -3.07093,-1.29762 -4.25586,0.0312 -4.3236,4.55407 -8.0724,9.63264 -12.12305,14.42968 -3.95061,4.89601 -7.98923,9.72386 -11.80273,14.72852 -7.96477,-0.45854 -15.76717,-2.41659 -23.51172,-4.29102 -3.34278,-0.77733 -6.63314,-2.059 -9.99609,-2.55078 -0.9766,0.18535 -1.05493,2.62689 -2.42383,1.89258 -8.65777,-3.36388 -16.53026,-8.45508 -24.88281,-12.43945 -4.02247,0.57902 -8.0029,1.84052 -12.04102,2.54883 -10.43316,2.13048 -21.15353,2.64445 -31.7207,4.21679 -9.88114,1.08737 -19.33088,4.59096 -28.29688,8.75 -4.3958,2.09749 -8.29698,5.2006 -13.02929,6.58594 -0.96774,0.16672 -2.59539,1.33657 -3.20313,0.041 0.156,-2.59474 1.27695,-5.08782 1.90039,-7.61133 1.90529,-6.19949 4.04358,-13.2342 9.95508,-16.78516 6.6201,-3.91536 14.35491,-4.30331 21.77344,-5.38476 11.94227,-1.41031 23.82786,-3.11273 35.83203,-3.92188 10.0771,-0.98775 20.07648,-2.67417 30.0332,-4.48437 3.75043,-0.84815 6.70753,-3.54519 10.00586,-5.36719 2.09057,-1.14337 3.89295,-2.65403 5.40235,-4.49414 1.0456,-1.32685 2.50661,-2.22684 4.24023,-2.19141 2.13935,-0.21667 4.56892,-0.73902 6.56055,-0.65234 -0.0676,1.26975 -0.007,2.6554 1.12304,3.44336 2.4869,3.27774 4.8911,6.74208 6.76368,10.35742 -0.17588,2.50303 0.35074,4.96602 1.51562,7.1875 1.21115,2.43153 1.98338,5.17606 3.58203,7.36914 1.69405,0.99117 2.82526,-1.2643 3.60938,-2.39648 2.38535,-3.68138 4.85153,-7.50409 5.42773,-11.95508 0.38775,-1.29505 0.35169,-2.85425 1.08594,-3.91016 5.116,-1.4189 10.47369,-1.4256 15.63476,-2.58008 1.31253,-0.55367 1.48769,-2.50846 0.91211,-3.64062 -2.09317,-1.55273 -3.8385,-3.53184 -5.35546,-5.65625 -1.23765,-1.53061 -2.59634,-3.53096 -4.78516,-3.57422 2.167,-4.8238 4.84953,-9.43664 6.62695,-14.42383 0.38658,-1.1326 0.0234,-3.11887 -1.57031,-2.70508 -3.56483,0.9377 -6.07188,3.94392 -8.91211,6.10352 -1.85835,1.63982 -3.82097,3.42793 -6.41992,3.62109 -1.43963,0.16484 -3.13425,0.49985 -4.46485,0.0605 0.39078,-0.99814 2.04886,-2.32433 0.55079,-3.24609 -3.3363,-2.0254 -7.06943,-3.46215 -10.15625,-5.86329 -0.61875,-2.08738 -3.25514,-1.77967 -4.95704,-1.78711 -2.06678,-0.0345 -4.25962,0.14664 -5.86132,1.61915 -4.08175,0.29826 -8.32754,-0.17486 -12.29297,0.99218 -1.4457,0.48769 -0.56704,2.17266 -0.71289,3.07227 -3.60318,1.42921 -5.90548,4.82474 -8.34961,7.66601 -2.63005,3.17654 -4.83755,6.78091 -7.94922,9.51368 -3.64235,1.95859 -8.48592,0.82818 -11.64258,3.875 -3.05188,2.50539 -7.29587,2.15267 -10.97266,2.80859 -8.92822,1.10919 -17.9566,1.67272 -26.76562,3.57031 -4.25042,1.44037 -8.67468,3.12671 -13.24805,2.37891 -1.70578,-0.25699 -3.53359,-0.27464 -5.13476,-0.89649 -1.3174,-2.0832 -0.99513,-4.78899 -0.47266,-7.07421 0.48495,-2.01693 2.1858,-4.01878 0.98242,-6.0879 -0.62763,-2.3585 -1.74202,-4.82074 -4.13281,-5.83789 -2.5286,-1.23788 -5.20193,-2.53446 -6.66992,-5.07812 -3.30205,-4.75935 -4.23923,-10.69558 -4.10547,-16.33594 0.0704,-4.40802 -0.11335,-8.81143 0.95703,-13.0957 1.40874,-1.95243 3.95946,-2.68994 5.94531,-3.92969 4.95412,-2.46629 9.87893,-5.15521 15.05469,-7.01953 5.95621,-1.31847 12.04724,-1.31334 18.10156,-1.97461 4.20404,-0.43763 8.50036,-0.34913 12.53516,-1.76758 8.44646,-2.16224 16.99579,-4.31945 25.60937,-5.5957 8.80493,-0.54676 17.6797,0.1665 26.3125,2.26367 6.00735,1.44267 12.04389,2.78627 18.03321,4.28906 8.49195,2.40194 16.71198,5.86651 25.42383,7.43164 5.12032,0.72115 10.31334,0.17143 15.31836,-1.02148 9.19459,-1.59932 18.54288,-1.02015 27.83398,-1.12305 9.75672,-0.0225 19.43779,0.6382 29.17969,1.35352 8.76365,0.22558 17.49814,-0.67837 26.25586,-0.51172 2.2288,-0.16159 4.57896,0.33037 6.72851,-0.25781 0.0781,-0.20307 0.0919,-0.42129 0.14258,-0.63086 1.46649,1.27615 4.31723,0.1454 6.23633,0.37695 25.70467,-1.61811 50.99886,-9.65396 72.8457,-23.29297 7.45936,-5.31162 11.19387,-14.45279 19.1875,-19.18945 2.53507,-2.17709 6.20844,-2.33729 8.38672,-4.91406 2.25985,-5.31477 1.15612,-11.39268 1.5332,-17.01953 -0.0431,-11.14853 0.0754,-22.30652 -0.36914,-33.44727 3.68246,0.23094 2.28217,-5.39493 -0.38281,-5.52734 -2.21334,1.07961 -1.73203,4.48688 -3.125,6.35937 -5.06716,11.25157 -11.9152,22.48895 -22.69727,28.98438 -8.93064,5.34082 -19.12528,8.09604 -28.73242,11.91406 -6.06612,1.85565 -11.90233,5.01994 -18.18945,5.68555 -1.53896,0.0664 -5.16518,-0.74719 -3.53125,-2.85743 4.03416,-8.65758 10.22145,-16.44114 12.53906,-25.82031 0.8837,-5.96285 1.37315,-12.10053 1.04883,-18.10351 -1.58098,-2.26941 -3.78545,1.26781 -4.12305,2.83984 -1.71618,5.46616 -1.03161,11.95016 -5.35742,16.32812 -8.97096,10.0853 -20.5065,17.69509 -32.74414,23.21289 -1.67501,0.14734 -2.49725,0.91599 -2.91016,1.95508 -0.37599,-0.45258 -0.93774,-0.68031 -1.53711,-0.28125 -5.62487,2.17686 -11.63978,2.48074 -17.58593,3.31836 -7.45515,0.82976 -14.9078,1.45003 -22.39063,1.61914 4.66113,-7.0406 9.31126,-14.17233 12.42578,-22.06445 2.13493,-5.13226 3.63658,-10.57975 3.62696,-16.17578 0.0713,-4.8893 0.53217,-9.80857 0.0742,-14.68555 -0.27855,-1.34585 -1.14474,-2.98737 -2.50196,-3.30273 -2.3615,0.77108 -4.58089,2.2215 -5.81836,4.44922 -6.5326,8.99483 -14.28296,17.29127 -23.54101,23.55859 -5.1914,3.37744 -10.67038,6.378 -16.42578,8.67578 -6.17963,1.94834 -12.7119,2.11638 -19.11133,2.72461 -1.65065,0.10891 -3.31638,0.23265 -4.94141,0.23633 -0.313,-1.77949 -1.44857,-3.52258 -1.46289,-5.26172 1.69662,-2.66527 4.13345,-5.05195 4.96484,-8.16016 0.0557,-1.51078 -1.828,-1.44462 -2.6582,-0.65625 -3.69855,2.22508 -7.367,4.56944 -10.62695,7.41211 -17.37462,-3.27377 -35.09399,-3.85629 -52.66992,-5.39648 9.17405,-3.3231 18.42975,-6.98808 26.30078,-12.87109 2.61662,-2.60348 4.49996,-5.88093 6.94726,-8.6211 5.21145,-6.5338 10.93311,-12.63629 16.33789,-19.00195 0.17574,-0.43555 0.1596,-0.74661 0.0449,-0.98633 h 0.36718 c 5.08901,-4.37531 9.48785,-9.76843 14.53711,-14.31641 3.40927,-3.22519 6.76384,-6.5244 10.38868,-9.50976 6.27308,5.93659 12.58544,12.16185 17.51367,19.15429 3.83223,5.77786 6.25658,12.29902 8.81054,18.67579 2.10214,1.56718 2.87166,-2.05522 3.61133,-3.39844 5.50991,-13.35644 7.64581,-27.76591 10.13086,-41.90235 11.92334,3.28018 23.40813,8.28529 34.02539,14.64844 12.42464,8.20181 23.41089,19.29406 29.35156,33.07813 1.30293,2.06059 1.60262,4.6928 2.90235,6.65429 2.34219,0.42936 2.84506,-3.01373 3.88281,-4.5 8.47675,-18.52498 9.40751,-39.51622 7.82031,-59.52539 18.40974,9.06244 31.75782,25.53606 40.93555,43.55274 2.33793,3.6683 3.49075,8.07702 6.06445,11.54101 2.38312,1.07697 2.49865,-2.67935 3.79297,-3.79492 6.60214,-10.54852 15.08702,-20.52937 17.51758,-33.10547 1.29199,-4.70787 1.54293,-10.30524 2.4707,-14.66015 10.22728,9.13518 19.10398,19.72594 26.9336,31 4.57571,6.06949 8.63045,12.6774 13.54687,18.39843 1.84825,-0.0449 3.03058,-3.92174 1.53906,-5.4414 -1.79452,-0.42015 -1.51126,-1.48894 -1.09375,-3.1543 1.67876,-9.15483 2.21599,-18.61026 1.19727,-27.86133 -4.10764,-14.54963 -9.9239,-28.57908 -15.7793,-42.48632 -11.48803,-12.67565 -27.19587,-20.44213 -42.70508,-27.04688 -21.19502,-8.6224 -44.25125,-11.20193 -66.91406,-12.57422 -23.19675,-0.44219 -46.42485,-0.46126 -69.61133,0.375 -1.31441,0.43516 -1.83703,0.0358 -2.49414,-0.9375 -0.94335,-0.40759 -2.12951,0.35052 -2.24609,-1.14062 -4.59676,-12.2686 -11.30225,-23.86599 -19.93359,-33.73828 C 433.47373,88.97084 417.15616,78.743521 399.24219,74.033203 383.62466,70.763404 367.5388,71.185264 351.66797,70.763672 Z m 26.01367,39.564448 -1.40635,-0.0391 c 7.73196,0.98447 16.45479,2.2503 20.91015,10.05469 3.55056,10.3239 1.02251,21.66854 -4.50185,30.54103 -4.98075,8.35226 -14.19077,12.6524 -23.11523,15.40039 -9.71988,2.39736 -20.58368,1.70946 -28.85742,-4.43555 -7.52015,-4.79206 -12.05435,-13.56128 -10.694,-22.49084 2.39814,-9.00175 8.55444,-16.22048 15.36001,-21.39393 9.61967,-5.57561 21.10194,-7.00145 31.91016,-7.6289 z"
       transform="scale(0.26458334)"
       sodipodi:nodetypes="ccccccccccccccccccccccccccccccccccccccccccccccccccccccccccccccccccccccccccccccccccccccccccccccccccccccccccccccccccccccccccccccccccccccccccccccccccccccccccccccccccccccccccccccccccccccccccccccccccccccccccccccccccccccccccccccccc" />
  </g>
</svg>
