<svg xmlns="http://www.w3.org/2000/svg" width="720" height="720" viewBox="5 0.5 183 181"><g stroke="#303030"><path fill="none" d="M37.23 150.62c-1.5-1.02-1.83-1.33-2.36-1.15m3.22 1.53 5.11.96"/><path fill="none" d="M38.1 151c-.39-.08-.9-.4-.9-.4m7.16 1.18 6.21-3.01m14.92-1.21c-6.95 7.62-13.94 1.28-14.08 1.15m-8.21 3.25c.6.1.96-.08 1.16-.18"/><path fill="none" d="M50.57 148.77c.47-.23.51-.4.84-.06m14.08-1.15c.36-.4 1.6-1.03 1.8-1.12m6.18-13.7c.15 9.18.48 8.17.72 12.25 0 .7-.14.77-.2 1.15"/><path fill="none" d="M73.98 146.14c-.08.6-2.06 1.04-3.1 1.23-.64.13-1.64-.65-2.7-1a1.2 1.2 0 0 0-.9.07m-41.14 4.68c-.04 3.16.57 3.67.7 3.91.17.24.39.5.8.54.33.01 1.5-.39 1.52-.39.74-.3 1.79-2.28 2.67-3.45m0 0c.16-.21 1.65-1.28 2.47-1.92.24-.16.3-.25.57-.34m-8.73 1.65c.02-1.17-1.07-2.54-1.18-3.65-.1-.82-.16-1.62-.23-2.43-.07-.88.05-2.35-.1-2.67-.11-.27-.97.03-1.1-.18-.1-.05.02-2.05-.13-2.11-.5-.4-.8.05-.94.28-.29.35-.87.72-1.26 1.12"/><path fill="#303030" stroke-width=".26" d="M20.89 141.15c-.2-.06-.54.03-.92-.06-.15-.12-.28-.08-.42-.09l-.34.18-.24 1.53c0 .15.06.28.14.39.2.2.48.3.74.43.31.2.66.27 1 .34.29-.16.7-.16.85-.46a5.5 5.5 0 0 0-.11-1.61z"/><path fill="none" stroke-width="2.1" d="M20.47 143.35a84 84 0 0 1 .24 6.5c0 .57 0 1.12.1 1.65.48 1.79.76 3.7.8 4.82-.31 2.77-.26 2.88-.23 4.19"/><path fill="none" stroke-linecap="round" stroke-width="1.7" d="M24.35 162.04c-.48.18-.35.17-.97.06-.39-.06-.64-1.11-1.26-1.45-.21-.11-.58-.08-.81-.06-.45.04-.57.73-.99.95-.13.09-.25.18-.45.2-.08 0-.46 0-.75.08-.69.25-1.75 1.14-2.17 1.11-.69-.04-1.87.16-2.06-.14-.1-.16-.3-.39-.45-.58"/><path fill="none" stroke-width="1.2" d="m23.4 140.08 1.12-1.97.43-1.08-.19-8.27a93.08 93.08 0 0 0-3.02-2.4"/><path fill="none" stroke-linecap="round" stroke-width="2.3" d="M19.15 141.2c-2.17-1.13-2.18-1.1-2.17-1.17.09-1.45.81-2.6 1.22-3.9l1.53-4.58c.29-.85.76-1.55 1-2.33.13-.78.08-1.56.38-2.32.07-.24.55-.36.5-.33"/><path fill="none" stroke-linecap="round" stroke-width=".9" d="M24.4 132.74c-.68.07-1.32 0-2.06.2-.15.1-.2.28-.23.46-.08.31-.14.72-.25.94-.32.5-.8.9-1.2 1.36"/><path fill="none" stroke-linecap="round" stroke-width=".5" d="M23.74 128.56c-.3.38-.53 1.75-.8 2.63"/><path fill="none" stroke-linecap="round" stroke-linejoin="round" stroke-width="2.3" d="M21.74 126.35c-.58-.96-1.2-1.9-1.73-2.9-1-2.03-1.94-4.1-2.68-6.26a78.69 78.69 0 0 1-1.63-8.44c.71-.24 2.69-.32 4.05-.27 1.45.04 3.87-.03 4.22.39"/><path fill="none" stroke-linecap="round" stroke-linejoin="round" stroke-width="1.2" d="M23.97 108.87c.93-.1.44 4.38.62 6.56l.2 7.36-.03 5.97"/><path fill="none" stroke-linecap="round" stroke-linejoin="round" stroke-width=".56" d="M22.46 140.36c.08-.49.2-.58.24-1.47.06-.45.1-.77.67-1.12.59-.39.97-.51 1.58-.74"/><path fill="none" stroke-linecap="round" stroke-linejoin="round" stroke-width="2.3" d="M23.97 108.87c-.55-.95-.74-1.52-1.27-2.36-.51-.98-1.14-4.43-1.14-4.65-.1-1.1-.2-3.2-.17-3.46.11-2.16.31-4.43.64-6.26a16.7 16.7 0 0 1 1.65-4.65c.57-1 .48-2.62 1.43-3.57.19-.17.47-.24.75-.27a6.91 6.91 0 0 0 1.8-.3c1.48-.6 3.93-1.87 4.44-1.96.72-.14 2.07-.45 2.8-.44 1.1.1 1.15.25 1.7.37"/><path fill="none" stroke-width="1.2" d="m23.97 108.87 1.08-1.8 1.07-2.01.9-6.36.68-3.18 2.02-6.06 2.42-4.27 4.46-3.87"/><path fill="none" stroke-width=".8" d="m23.68 87.5 5.09-1.06 3.37-1.25"/><path fill="none" d="M73.47 132.74c0-.37-1.31-.9-1.42-1.26-.12-.44-.14-3.05.15-3.26 2.6-1.52 2.66-3.1 3.62-3.3 1.74-.05 4.5-1.28 6.78-1.94m0 0c.38-.1.6-.32 1.32-.44 2.68-.32 7.84-.15 8.11-.12.55.11 2.44.62 3.81.8.5.1.85.38 1.25.6.4.23.92.55 1.27.71.8.37.7.48 1.4.73.38.12 7.11-.43 10.5-.02l7.02 4.53"/><path fill="none" stroke-width=".26" d="M117.08 130.07c.4.26.85.76 1.05.7.07-.05.22-.26.06-.9a22.9 22.9 0 0 0-.95-1.75l-2.4-3.8"/><path fill="none" stroke-width=".26" d="M114.86 124.39c.49-.65 1.13-.99 2.31-1.34.4-.1.43-.12.63-.21.7-.4 2.02-1.28 2.06-1.38.07-.14 0-.4-.11-.5-.25-.23-.4-.27-.71-.38l-2.14-.8-1.25-.4m0 0c-.1-.03.09-.31.17-.43.2-.18.52-.49.89-.87l2.72-2.8c.19-.19.36-.34.43-.54-.08-.38-1.2-.58-1.51-1.25a1.9 1.9 0 0 0-.6-.36c-.53-.17-1.24-.24-1.28-.15-.19.38-.57.95-.7 1-.22 0-.51-.03-.7-.16-.07-.03-.14-.08-.26-.1-.28-.01-.44.03-.52.1"/><path fill="none" stroke-width=".28" d="M114.29 113.82c.12-.15-4.3 5.15-6.39 7.83-.35.12-3.02-.45-4.53-.68l-4.85-1.32"/><path fill="none" d="M73.24 115.9c1.53-.55 6.67-.96 10-1.44"/><path fill="none" stroke-linejoin="round" d="M83.24 114.46c1.44-.18 3.2-.24 4.76-.4 2.64-.37 4.48-.7 6-.94.7-.1.86-.15 1.23-.25.65-.21 1.88-1.14 3.14-1.88.3-.16.69-1 1.13-1.12a17.7 17.7 0 0 1 2.44-.31"/><path fill="none" stroke-width=".26" d="M101.94 109.99c.37.5.88 1.17 1.1 1.53.33.57.91 1.38.9 1.68 0 .35-.11.7-.05.78.53 1.15 1.19 2.78 1.29 2.83.18.03.36 0 .47-.12a18.9 18.9 0 0 0 1.57-2.68c.23-.92.35-1.9.45-2.06.22-.25 4.2-.63 4.34-.7.1-.07.24-.68.14-.8-.1-.13-.42-.32-.58-.45-.46-.45-.88-1.15-1.13-1.4a1.94 1.94 0 0 0-.6-.55c-.17-.06-.33-.04-.5-.03l1.77-3.64m-.01 0c.07-.12.17-.7.08-.87-.14-.17-.87.16-.94.19-.22.08-2.32 1.93-2.58 2.13-.6.26-2.03.47-2.17.19-.03-.23.36-.48.4-.67-.01-.15-1.88-1-2.83-1.61m0 0c-.15-.2-.18-.45-.28-.49a7.8 7.8 0 0 0-2.1.04c-.73.86-1.83-.08-3.8.62"/><path fill="none" d="M96.96 104.27c-1.71.31-3.03 3.04-4.63 4.67-.68.3-1 .2-2.34.5-.7.3-.92.8-1.58.95-2.18.33-4.98.56-6.6.77-1.14.18-2.45.33-2.89.54-1.06.48-2.12.8-4.23.34-.4-.86-.06-1.6.36-2.64 0 0-.03-.86-.6-1.81-.2-.34-.2-.38-1.75-1.1-2.18-1.9-1.87-5.53-1.53-8.29.36-.44 3.77-2.1 5.42-2.79.6-.22 6.73-.57 7.22-.72 3.92-1.07 7.06-1.7 8.35-1.78 5.27-.04 7.15 1.12 10.67 1.7 2.79.85 6.29 2.26 8.4 2.22 1.4-.1 2.02-.3 3.1-.51 4.65-.56 13.9 0 14.95.21"/><path fill="none" stroke-width=".9" d="M165.89 84.1c.2-.1.37-.5.5-1.06.32-1.3.27-3.09.4-4.76-.09-1.95-.2-5.44-.26-8.49"/><path fill="none" d="M129.28 96.53c.2.11 2.47-.25 7.71-.18 2.03-.04 3.76-.19 5.9-.45a43.15 43.15 0 0 0 8.22-2.08c2.37-.96 3.78-1.41 6.83-3.22 1.63-.72 2.66-2.17 4.04-3.98.78-.99 3-2.54 4.12-2.61M37.09 81.22c1.9-3.15 2.9-6.18 5.73-9.44 2.03-1.85 4.86-2.94 7.3-4.18l5.67-.62-14.06 12.14z"/><path fill="none" d="m41.56 79.27 3.27-9.6c1.39-3.17 1.76-2.7 4.04-2.46l5.88.79"/><path fill="none" d="M47.42 68.9c2.23.31 4.4.21 6.3-.13m2.07-1.79c7.4-6.39 9.46-15.18 11.13-20.78.37-2.6 1.2-4.24 2.14-6.41 1.91-4.23 6.84-9.43 8.12-10.62 2.97-3 6.02-5.47 9.27-7.55 2.16-1.34 2.96-2.65 5.68-3.19"/><path fill="none" stroke-width=".26" d="M64.82 52.14c-2.01.36-2.87 2.3-2.87 2.3l2.58-.39m-4.41 7.45c-2.38.04-1.75 2.44-1.75 2.44"/><path fill="none" stroke-linecap="round" stroke-linejoin="round" stroke-width=".26" d="M70.28 37.69c-3.87 2.93-5.22 4.56-5.68 5.5 1.43-1.05 1.84-1.47 4.23-2.75" paint-order="markers fill stroke"/><path fill="none" stroke-width=".26" d="M78.37 27.67c-4.2 1.9-7.62 4.35-8.1 5.25 2.92-1.78 3.99-2.2 5.6-2.67" paint-order="markers fill stroke"/><path fill="none" stroke-linecap="square" stroke-linejoin="round" stroke-width=".29" d="M87.03 20.84c-3.56 1.55-6.45 3.2-7.56 4.17 2-.64 2.44-.85 3.63-1.14"/><path fill="none" d="M91.86 18.45c4.36 0 11.14.05 14.36.9a30.92 30.92 0 0 1 7.48 3.57c2 1.4 4.29 3.37 5.5 4.9a29.97 29.97 0 0 1 4.64 8.53m.05-.05c7.6-.56 18.54-.35 22.92.06 8.75 1.04 11.06 1.98 13.37 2.84 5.98 2.32 11.33 5.81 12.24 7.86 1.42 3.26 3.75 9 4.24 11.87.21 1.8-.08 4.73-.64 7.54"/><path fill="none" stroke-linecap="square" stroke-linejoin="round" stroke-width=".26" d="M176.4 66.5c-.23 1.5-.59 1.34-.59 1.34-3.62-4.68-5.66-8.83-10.8-13.26"/><path fill="none" stroke-linecap="round" stroke-linejoin="round" stroke-width=".26" d="M164.92 54.52c-.37 8.17-3.9 9.82-6.01 14.26-3.87-8.93-7.9-12.65-12.71-15.19"/><path fill="none" stroke-linejoin="round" stroke-width=".26" d="M146.27 53.53c1.01 9.76-1.73 16.1-2.96 17.45-3.37-11.14-15.88-14.24-17.78-14.75"/><path fill="none" stroke-linejoin="round" stroke-width=".26" d="M122.19 68.73c1.17-1.1 2.8-7.28 3.42-12.48"/><path fill="none" stroke-linecap="round" stroke-linejoin="bevel" stroke-width=".26" d="M122.19 68.73c-1.45-5.25-3.85-7.42-7.08-10.56"/><path fill="none" stroke-width=".26" d="M115.1 58.17c-5.85 5.1-11.84 12.43-12.68 13.76-1.56 1.41-5.46 3.07-7.7 3.74"/><path fill="none" stroke-linecap="round" stroke-linejoin="round" stroke-width=".26" d="M94.72 75.67c6.96.5 11.95.87 14.5 1.48 1.09-1 2.44-1.78 3.6-2.38-.17.87-.9 1.78-1.56 2.67.22.76.44 1.06.46 1.45 1.97-.04 5.7-.34 6.92-.94 2.04-1.05 6.13-2.53 10.61-9 .17-.18.8-.46 1.09-.57.4.36.52.65.56 1 0 1.92-.04 4.5-.2 5.4-.76 3.1-2.21 5.68-4.26 8.51"/><path fill="none" stroke-linecap="round" stroke-linejoin="round" stroke-width=".26" d="M126.44 83.29a65.3 65.3 0 0 0 9.99-1c5.54-1.9 10.15-5.66 11.5-8.07.43-1.24.27-3.74 1.26-4.13m0 .01.4-.23c-.07 4-.29 5.54-.48 5.97-1.06 2.37-2.37 4.27-3.36 6.35m0 .01c.37.5 1.2.6 1.72.52 1.88-.68 5.5-2.02 8.9-3.24 5.74-2.16 7.23-5.59 8.98-8.94.11-.24.26-.48.69-2 .3.13.6.24.73.5.1.38.09.53.09.8"/><path fill="none" d="M92.7 43.77c-8.5-2.94-5.3-12.77 3.8-13.91 13.66-1.63 8.43 9.99 5.27 11.96"/><path fill="none" stroke-linecap="round" stroke-linejoin="round" d="M92.7 43.77c2.52.69 6 .23 9.06-1.95"/><path fill="none" stroke-linecap="round" stroke-linejoin="round" stroke-width=".9" d="M103.28 40.33c3.18-11-6.03-10.63-10.03-8.6m0 0c-2.6 1.48-4.75 5.35-4.54 8.97"/><ellipse cx="95.91" cy="36.74" fill="#303030" stroke-linecap="round" stroke-linejoin="round" paint-order="markers fill stroke" rx="1.08" ry=".76"/><path fill="#303030" stroke-linecap="round" stroke-linejoin="round" stroke-width=".27" d="M97.34 37.06c-.07.59-.08 1.38-.38 1.83-.54.64-1.27.96-1.96.98-.55-.1-.74-.53-.82-1.05.14-.22.8-.18 1.03-.38.23-.48-.44-1.02-.7-1.46z"/><path fill="none" stroke-linecap="round" stroke-linejoin="round" d="M73.24 115.9c.46-.15-1.3.38-2.02.99-1.14 1.1-1.46 2.36-1.59 2.63a44.2 44.2 0 0 0-.96 3.19c.96-.25 1.55-.57 2.22-.92.82-.6 3.12-1.87 6.96-2.92.74-.25 3.34-.51 5.35-.8 2.2-.16 4.4-.47 6.35-.91.48-.14.85-.23 2.2-.51.42-.03 3.95 2.26 6.75 3.35"/><path fill="none" stroke-linecap="round" stroke-linejoin="round" stroke-width=".4" d="M19.4 122.12c2.07.3 3.92.43 5.3.2"/><path fill="#303030" stroke-linejoin="round" stroke-width=".01" d="M24.08 137.43c-.29.08-.53.27-.77.42-.26.18-.5.43-.53.75-.05.28-.07.57-.09.85.02.2.25.26.42.23.22.03.34-.17.42-.34.28-.5.6-1 .84-1.52.07-.2-.08-.42-.3-.39zm-3.51-15.08a.26.26 0 0 0-.21.42c.53 1.1 1.25 2.11 1.9 3.14.13.19.24.4.22.63 0 .25.3.34.46.5.4.28.79.6 1.2.87.2.1.42-.1.38-.29v-4.98c0-.2-.22-.28-.4-.25-1.18 0-2.36 0-3.55-.04zM34.82 81.7c-.86.06-1.7.24-2.53.42-.47.11-.89.36-1.32.55-1.03.47-2.04.98-3.1 1.4-.67.22-1.38.27-2.08.35-.27.05-.39.35-.51.56-.24.55-.36 1.13-.5 1.7-.06.21.15.44.36.36l3.63-.75c.97-.38 1.96-.71 2.93-1.12.2-.1.33-.3.52-.43.93-.84 1.9-1.64 2.83-2.49.17-.12.2-.42-.02-.52a.49.49 0 0 0-.21-.03zm-2.95 3.34c-.04.05.01-.01 0 0zM43.46 71.6c-.24.11-.4.33-.58.5a27.25 27.25 0 0 0-3.5 5.4l-1.3 2.5c0 .04-.02.2.08.28.18.16.41-.01.6-.08.84-.39 1.7-.76 2.54-1.16.18-.13.18-.39.27-.58l2.21-6.52a.27.27 0 0 0-.32-.33zm-5.36 8.37s.01-.02 0 0zM50.61 67.8c-.23 0-.47.04-.68.17-.26.15-.56.24-.8.43-.13.19.05.45.28.42.73.03 1.46.01 2.19-.03.57-.06 1.15-.1 1.72-.21.22-.07.24-.41.02-.5-.41-.1-.84-.12-1.25-.19-.39-.04-.77-.12-1.16-.13l-.32.03zm-3.5-.51c-.43-.02-.81.25-1.05.59-.3.4-.53.84-.73 1.3-.06.22.2.42.4.3 1-.52 2.03-1 3.05-1.5.22-.08.23-.43 0-.5-.46-.1-.95-.14-1.43-.19h-.24zm12.64-5.89c-.6.07-1.2.44-1.42 1.03-.14.37-.2.78-.12 1.16.04.23.37.28.48.08.5-.61 1-1.24 1.45-1.89.12-.2-.09-.45-.3-.39l-.09.01zm4.71-9.28c-.35.07-.68.25-1 .43a4.5 4.5 0 0 0-1.49 1.61c-.08.22.15.42.36.35.54-.09 1.1-.16 1.63-.26.23-.07.24-.35.33-.54.15-.43.33-.86.45-1.3a.28.28 0 0 0-.28-.3zm4.38-13.38c-.23.04-.38.25-.57.38a21.49 21.49 0 0 0-3.27 3.2c-.15.15-.12.45.1.5.23.06.38-.17.56-.27.83-.63 1.71-1.17 2.61-1.68.17-.15.2-.4.31-.6.17-.4.38-.8.53-1.22a.27.27 0 0 0-.27-.31zm8.31-10.62c-.72.34-1.42.74-2.12 1.12a26.67 26.67 0 0 0-4.15 2.82c-.17.15-.06.45.16.46.24-.02.42-.2.63-.3.9-.5 1.8-.98 2.74-1.36.37-.15.75-.25 1.11-.4.29-.23.52-.51.79-.77.38-.39.78-.76 1.14-1.17.12-.2-.07-.45-.3-.4z" paint-order="stroke fill markers"/><path fill="#303030" stroke="none" d="M84.93 21.7c-.5.2-.98.46-1.47.7-1.14.6-2.27 1.22-3.33 1.95-.2.12-.13.47.1.5.23 0 .43-.13.65-.18.5-.18 1.03-.32 1.54-.51a78.4 78.4 0 0 1 2.6-1.9c.15-.08.3-.28.18-.44a.25.25 0 0 0-.27-.13z" paint-order="stroke fill markers"/><path fill="#303030" stroke-linejoin="round" stroke-width=".07" d="M93.05 18.72h-.14c-2.62-.01-4.53 2.05-6.6 3.33a59.7 59.7 0 0 0-14.96 14.46 28.26 28.26 0 0 0-4.31 10.27c-1.6 5.94-3.67 11.91-7.55 16.78-.44.32-.52.68-.37.91h-.32c-.5.26-.8.8-1.22 1.17-1.88 1.85-3.94 3.5-5.92 5.26l-9.78 8.45c-1.45.7-2.97 1.27-4.38 2.06-.28.26-.49.76-.96.67-.52.07-.87.57-1.29.85-.96.83-1.94 1.65-2.89 2.5-.78 1.43-1.64 2.83-2.38 4.28-1.03 3.16-2.25 6.28-2.7 9.59-.33 1.97-.55 3.96-.88 5.91-.5 1.03-1.13 2-1.64 3.03-.19 1 .09 2.03.06 3.04.02 5 .23 10.01.22 15.03 0 3.58.09 7.17.18 10.76-.37 1.06-.97 2.02-1.5 3 .01.59 0 1.21.13 1.78.25.26.82 0 1 .42.2 1.16.1 2.35.22 3.52.07 1.04.14 2.12.64 3.07.4.8.72 1.66.7 2.58.09 1.24-.04 2.68.86 3.68.42.35 1 0 1.45-.09.8-.2 1.16-1.03 1.64-1.63.5-.66.9-1.4 1.43-2.02.97-.69 1.86-1.52 2.91-2.1.82-.34 1.54.37 2.18.77.47.35.99.63 1.58.7 1.71.36 3.43.75 5.16.95 1-.26 1.9-.82 2.84-1.24 1.57-.73 3.1-1.55 4.7-2.2.62.28 1.08.82 1.67 1.15 2.42 1.58 5.64 2.18 8.35.98 1.6-.63 2.9-1.8 4.1-2.98a6.51 6.51 0 0 1 2.26-1.33c1.15-.13 2.03.84 3.12 1 .9-.05 1.79-.33 2.63-.66.66-.3.61-1.16.6-1.77-.17-2.5-.53-4.97-.57-7.47-.07-1.47-.05-2.95-.18-4.42-.38-.55-1.32-.69-1.38-1.46-.05-.96-.1-1.94.09-2.9.22-.62.96-.78 1.38-1.24.82-.64 1.32-1.59 2.08-2.28.56-.35 1.26-.24 1.88-.45 2.14-.61 4.23-1.37 6.34-2.07 1.53-.29 3.08-.23 4.62-.27 1.33 0 2.66 0 3.98.08 1.33.34 2.68.59 4.02.87 1.23.55 2.34 1.35 3.57 1.9 1.16.1 2.34-.05 3.5-.03 2.39-.02 4.77-.14 7.14.07 2.29 1.48 4.59 2.95 6.87 4.44-.2.24-.37.65-.03.85.3.2.6.64.98.49.41-.38.05-.97-.14-1.37-.91-1.74-2.05-3.35-3.02-5.05.9-1.06 2.42-1.06 3.5-1.83.47-.36 1.1-.59 1.4-1.1.15-.55-.53-.77-.9-.92-1.07-.45-2.17-.8-3.26-1.2.87-1.14 1.97-2.08 2.94-3.13.4-.45.87-.85 1.2-1.34.03-.44-.54-.54-.8-.78-.57-.36-.98-1-1.69-1.1-.39-.08-.96-.26-1.16.24-.2.3-.43.88-.9.64-.36-.16-.82-.34-1.13 0-1.14 1.21-2.13 2.56-3.2 3.83-1.05 1.3-2.12 2.57-3.13 3.9-2.1-.13-4.17-.65-6.22-1.14-.88-.2-1.76-.55-2.65-.68-.25.05-.27.7-.64.5-2.29-.89-4.37-2.23-6.58-3.29-1.06.16-2.12.49-3.19.68-2.76.56-5.6.7-8.39 1.11a24.3 24.3 0 0 0-7.49 2.32c-1.16.55-2.2 1.37-3.44 1.74-.26.04-.69.35-.85.01.04-.69.34-1.35.5-2.01.5-1.64 1.07-3.5 2.64-4.44 1.75-1.04 3.8-1.14 5.76-1.43 3.16-.37 6.3-.82 9.48-1.04 2.66-.26 5.31-.7 7.94-1.18 1-.23 1.78-.94 2.65-1.42a4.7 4.7 0 0 0 1.43-1.2 1.4 1.4 0 0 1 1.12-.57c.57-.06 1.21-.2 1.74-.17-.02.33 0 .7.3.9.65.87 1.29 1.79 1.79 2.75a3.5 3.5 0 0 0 .4 1.9c.32.64.52 1.37.94 1.95.45.26.75-.34.96-.64a7.9 7.9 0 0 0 1.44-3.16c.1-.34.09-.75.28-1.03 1.36-.38 2.77-.38 4.14-.69.35-.14.4-.66.24-.96a6.63 6.63 0 0 1-1.42-1.5c-.32-.4-.68-.93-1.26-.94.57-1.28 1.28-2.5 1.75-3.82.1-.3 0-.82-.41-.71-.95.24-1.61 1.04-2.36 1.61-.5.44-1.01.9-1.7.96-.38.04-.83.13-1.18.02.1-.27.54-.62.14-.86-.88-.54-1.87-.92-2.68-1.55-.17-.56-.87-.48-1.32-.48-.54 0-1.12.04-1.55.43-1.08.08-2.2-.05-3.25.26-.38.13-.15.58-.19.82-.95.37-1.56 1.27-2.2 2.02-.7.84-1.29 1.8-2.11 2.52-.96.52-2.25.22-3.08 1.03-.8.66-1.93.57-2.9.74-2.37.3-4.75.44-7.09.94-1.12.39-2.29.83-3.5.63-.45-.06-.94-.07-1.36-.23-.35-.55-.26-1.27-.12-1.87.12-.54.57-1.07.26-1.62-.17-.62-.46-1.27-1.1-1.54-.67-.33-1.37-.67-1.76-1.34a7.23 7.23 0 0 1-1.09-4.33c.02-1.16-.03-2.33.25-3.46.38-.52 1.05-.71 1.58-1.04 1.3-.65 2.61-1.36 3.98-1.86 1.58-.35 3.19-.35 4.79-.52 1.11-.12 2.25-.1 3.32-.47 2.23-.57 4.5-1.14 6.77-1.48 2.33-.14 4.68.05 6.96.6 1.6.38 3.2.74 4.78 1.14 2.24.63 4.42 1.55 6.72 1.96 1.36.2 2.73.05 4.06-.27 2.43-.42 4.9-.27 7.36-.3 2.58 0 5.14.17 7.72.36 2.32.06 4.63-.18 6.95-.13.59-.05 1.2.08 1.78-.07l.04-.17c.38.34 1.14.04 1.65.1a41.48 41.48 0 0 0 19.27-6.16c1.97-1.4 2.96-3.83 5.08-5.08.67-.57 1.64-.62 2.21-1.3.6-1.4.31-3.01.41-4.5-.01-2.95.02-5.9-.1-8.85.98.06.6-1.43-.1-1.46-.58.28-.46 1.18-.83 1.68-1.34 2.98-3.15 5.95-6 7.67-2.36 1.41-5.06 2.14-7.6 3.15-1.6.5-3.15 1.33-4.82 1.5-.4.02-1.36-.2-.93-.75 1.07-2.3 2.7-4.35 3.32-6.83.23-1.58.36-3.2.28-4.8-.42-.6-1 .34-1.1.76-.45 1.44-.27 3.16-1.41 4.32a25.58 25.58 0 0 1-8.67 6.14c-.44.04-.66.24-.77.52-.1-.12-.24-.18-.4-.08-1.5.58-3.08.66-4.66.88a69 69 0 0 1-5.92.43 32.12 32.12 0 0 0 3.29-5.84c.56-1.36.96-2.8.96-4.28.02-1.3.14-2.6.02-3.88-.08-.36-.3-.8-.67-.88-.62.2-1.2.59-1.53 1.18a25.56 25.56 0 0 1-6.23 6.23c-1.38.9-2.83 1.69-4.35 2.3-1.63.51-3.36.56-5.06.72-.43.03-.87.06-1.3.06-.09-.47-.39-.93-.39-1.4.45-.7 1.1-1.33 1.31-2.15.02-.4-.48-.38-.7-.17-.98.58-1.95 1.2-2.81 1.96-4.6-.87-9.29-1.02-13.94-1.43 2.43-.88 4.88-1.85 6.96-3.4.7-.7 1.2-1.56 1.84-2.29 1.38-1.73 2.9-3.34 4.32-5.02.05-.12.04-.2.01-.27h.1c1.35-1.15 2.51-2.58 3.85-3.78.9-.86 1.79-1.73 2.75-2.52a34.93 34.93 0 0 1 4.63 5.07c1.01 1.53 1.66 3.25 2.33 4.94.56.41.76-.54.96-.9 1.45-3.53 2.02-7.35 2.68-11.09 3.15.87 6.19 2.2 9 3.88 3.29 2.17 6.2 5.1 7.77 8.75.34.55.42 1.24.76 1.76.62.12.76-.8 1.03-1.19 2.24-4.9 2.49-10.45 2.07-15.75 4.87 2.4 8.4 6.76 10.83 11.53.62.97.92 2.13 1.6 3.05.64.28.67-.71 1-1 1.76-2.8 4-5.44 4.64-8.76.35-1.25.41-2.73.66-3.88a46.45 46.45 0 0 1 7.12 8.2c1.21 1.6 2.29 3.35 3.59 4.87.49-.02.8-1.04.4-1.44-.47-.11-.4-.4-.28-.84.44-2.42.58-4.92.31-7.37a97.38 97.38 0 0 0-4.17-11.24c-3.04-3.35-7.2-5.4-11.3-7.16-5.6-2.28-11.71-2.96-17.7-3.32-6.14-.12-12.29-.13-18.42.1-.35.11-.49 0-.66-.25-.25-.11-.57.1-.6-.3a29.1 29.1 0 0 0-5.27-8.93 27.2 27.2 0 0 0-12.46-7.46c-4.13-.87-8.39-.76-12.58-.87Zm6.88 10.47h-.37c2.04.25 4.35.59 5.53 2.65.94 2.73.27 5.73-1.2 8.08-1.31 2.21-3.75 3.35-6.1 4.08-2.58.63-5.45.45-7.64-1.18a6.07 6.07 0 0 1-2.83-5.95 10.8 10.8 0 0 1 4.06-5.66c2.55-1.47 5.58-1.85 8.44-2.02z" paint-order="stroke fill markers"/></g></svg>
