<svg xmlns="http://www.w3.org/2000/svg" width="72" height="17" viewBox="0 0 19.05 4.5"><path fill="#fff" d="M12.7 0h6.35v4.5H12.7z" paint-order="markers fill stroke"/><path fill="#fff" d="M0 0h6.35v1.49H0z" paint-order="stroke fill markers"/><path fill="#009b75" d="M0 1.5h6.35V3H0z" paint-order="stroke fill markers"/><path fill="#d01c1f" d="M0 3h6.35v1.5H0z" paint-order="stroke fill markers"/><path fill="#0055a4" d="M6.35 0h2.12v4.5H6.35z" paint-order="stroke fill markers"/><path fill="#fff" d="M8.47 0h2.12v4.5H8.47z" paint-order="stroke fill markers"/><path fill="#ef4135" d="M10.58 0h2.12v4.5h-2.12z" paint-order="stroke fill markers"/><path fill="#012169" d="M14.08 1.5 12.7.52v.98h1.38m0 1.48-1.38.98v-.98h1.38m2.32-1.65V0h1.9l-1.9 1.33m-1.05 0V0h-1.89l1.89 1.33m1.05 1.84V4.5h1.9l-1.9-1.33m1.27-1.66 1.38-.98v.98h-1.38m0 1.49 1.38.97V3h-1.38"/><path fill="#c8102e" d="M15.56 0h.63v4.5h-.63z" paint-order="stroke fill markers"/><path fill="#c8102e" d="M12.7 1.8h6.35v.9H12.7z" paint-order="stroke fill markers"/><path fill="#012169" d="M15.35 3.17V4.5h-1.89l1.89-1.33"/><path fill="#c8102e" d="M19.05 4.5v-.34L17.4 2.99h-.47l2.12 1.5M16.47 1.5h.46L19.05 0h-.48Zm-3.77 3h.46L15.28 3h-.48zm0-4.5v.34l1.65 1.16h.47L12.7 0"/></svg>